<?xml version="1.0" standalone="no"?>
<!DOCTYPE svg PUBLIC "-//W3C//DTD SVG 20010904//EN"
 "http://www.w3.org/TR/2001/REC-SVG-20010904/DTD/svg10.dtd">
<svg version="1.0" xmlns="http://www.w3.org/2000/svg"
 width="16.000000pt" height="16.000000pt" viewBox="0 0 16.000000 16.000000"
 preserveAspectRatio="xMidYMid meet">
<metadata>
Created by potrace 1.11, written by Peter Selinger 2001-2013
</metadata>
<g transform="translate(0.000000,16.000000) scale(0.000443,-0.000443)"
fill="#000000" stroke="none">
<path d="M17987 33568 c-30 -51 -132 -227 -226 -391 -95 -164 -180 -312 -190
-330 -103 -177 -168 -290 -190 -328 -88 -154 -198 -344 -212 -367 -9 -15 -69
-119 -134 -232 -64 -113 -121 -209 -125 -215 -4 -5 -21 -35 -37 -65 -17 -30
-63 -111 -103 -180 -40 -69 -166 -287 -280 -485 -114 -198 -216 -374 -226
-392 -11 -18 -46 -78 -78 -135 -32 -57 -96 -167 -142 -245 -46 -78 -84 -144
-84 -147 0 -2 -31 -56 -70 -120 -38 -64 -70 -118 -70 -120 0 -2 -36 -65 -80
-140 -44 -76 -80 -141 -80 -146 0 -6 -4 -10 -10 -10 -5 0 -10 -4 -10 -9 0 -5
-23 -49 -51 -98 -135 -231 -234 -402 -257 -443 -14 -25 -65 -115 -115 -200
-49 -85 -132 -229 -185 -320 -52 -91 -124 -214 -159 -273 -34 -60 -63 -112
-63 -116 0 -5 -8 -19 -18 -32 -11 -13 -31 -46 -47 -74 -15 -27 -44 -79 -65
-115 -21 -36 -47 -81 -58 -100 -25 -45 -165 -288 -189 -328 -10 -17 -43 -75
-74 -129 -31 -54 -114 -197 -184 -318 -70 -121 -136 -236 -147 -255 -43 -76
-295 -511 -353 -610 -33 -58 -64 -112 -68 -120 -4 -8 -15 -28 -26 -45 -18 -30
-442 -762 -489 -845 -14 -25 -99 -173 -190 -330 -90 -157 -207 -359 -260 -450
-52 -91 -138 -239 -190 -330 -53 -91 -133 -230 -179 -310 -45 -80 -87 -152
-93 -160 -5 -8 -26 -44 -46 -80 -33 -57 -392 -679 -589 -1020 -40 -69 -124
-215 -187 -325 -64 -110 -188 -326 -277 -479 -88 -154 -161 -282 -161 -284 0
-3 -6 -13 -14 -21 -7 -9 -27 -41 -43 -71 -17 -30 -43 -77 -60 -105 -16 -27
-32 -57 -36 -65 -4 -8 -15 -28 -26 -45 -10 -16 -27 -46 -38 -65 -11 -19 -105
-181 -208 -360 -104 -179 -196 -338 -204 -355 -9 -16 -19 -31 -23 -33 -5 -2
-8 -7 -8 -11 0 -4 -39 -75 -86 -157 -48 -82 -98 -169 -112 -194 -13 -25 -28
-49 -32 -55 -4 -5 -17 -27 -29 -47 -12 -21 -31 -55 -42 -75 -32 -57 -394 -685
-455 -788 -64 -110 -349 -606 -376 -654 -11 -20 -24 -40 -28 -46 -4 -5 -19
-30 -33 -55 -13 -25 -49 -88 -79 -140 -31 -52 -108 -187 -173 -300 -65 -113
-126 -218 -136 -235 -10 -16 -40 -68 -67 -115 -27 -47 -75 -130 -106 -185 -32
-55 -69 -119 -82 -142 -13 -23 -157 -273 -320 -555 -163 -282 -304 -526 -314
-543 -81 -142 -254 -442 -260 -450 -4 -5 -19 -30 -32 -55 -14 -25 -76 -133
-138 -240 -62 -107 -120 -208 -130 -225 -9 -16 -61 -106 -115 -200 -169 -291
-496 -858 -644 -1114 -39 -68 -71 -128 -71 -132 0 -5 -4 -9 -10 -9 -5 0 -10
-4 -10 -9 0 -5 -23 -49 -51 -98 -29 -48 -63 -108 -77 -133 -13 -25 -31 -52
-38 -61 -8 -8 -14 -18 -14 -22 0 -4 -117 -210 -261 -458 -143 -248 -272 -472
-286 -497 -14 -25 -39 -69 -56 -96 -16 -28 -37 -64 -47 -81 -21 -38 -205 -356
-389 -674 -78 -134 -141 -246 -141 -248 0 -3 -8 -17 -19 -31 -10 -15 -29 -47
-43 -72 -14 -25 -54 -95 -90 -156 -36 -61 -68 -117 -71 -125 -4 -8 -17 -30
-28 -49 -29 -47 -691 -1195 -719 -1245 -12 -22 -26 -44 -30 -50 -4 -5 -19 -30
-32 -55 -26 -46 -54 -95 -87 -153 -193 -334 -247 -426 -291 -502 -29 -49 -65
-114 -82 -143 -16 -30 -68 -120 -115 -200 -47 -81 -111 -192 -143 -247 -32
-55 -99 -170 -148 -256 -50 -86 -102 -176 -117 -200 -14 -24 -31 -56 -38 -71
-6 -16 -15 -28 -19 -28 -4 0 -8 -4 -8 -9 0 -5 -26 -54 -58 -108 -32 -54 -61
-105 -65 -113 -5 -8 -18 -32 -30 -52 -12 -20 -51 -88 -87 -150 -35 -62 -69
-121 -75 -130 -12 -21 -130 -224 -166 -288 -25 -43 -263 -455 -661 -1143 -98
-170 -178 -312 -178 -318 0 -5 -4 -9 -10 -9 -5 0 -10 -4 -10 -9 0 -7 -215
-388 -249 -441 -6 -8 -26 -42 -44 -75 -19 -33 -57 -98 -84 -145 -27 -47 -61
-105 -75 -130 -14 -25 -76 -133 -138 -240 -151 -260 -240 -416 -375 -650 -62
-107 -142 -245 -177 -306 -36 -61 -68 -117 -71 -125 -4 -8 -16 -29 -28 -48
-11 -19 -85 -147 -165 -285 -79 -138 -149 -258 -154 -266 -5 -8 -17 -27 -25
-42 l-16 -28 18041 0 18040 0 -19 32 c-54 97 -258 448 -278 480 -12 21 -23 39
-23 41 0 3 -70 125 -155 272 -85 147 -155 269 -155 272 0 3 -8 17 -19 31 -10
15 -29 45 -41 67 -43 76 -483 840 -525 910 -23 39 -45 77 -48 85 -4 8 -15 29
-26 45 -10 17 -70 120 -133 230 -64 110 -125 216 -136 235 -11 19 -33 58 -47
85 -15 28 -32 57 -39 65 -6 8 -16 24 -22 35 -26 49 -67 120 -148 258 -47 82
-97 167 -110 190 -13 23 -57 101 -98 172 -42 72 -126 218 -188 325 -62 107
-153 265 -203 350 -49 85 -130 225 -179 310 -49 85 -93 162 -98 170 -43 71
-90 153 -90 156 0 2 -24 43 -53 92 -30 49 -57 97 -60 106 -4 9 -22 41 -42 71
-19 31 -35 57 -35 60 0 3 -13 26 -29 52 -62 103 -145 248 -146 253 0 3 -8 16
-16 30 -19 29 -115 194 -153 262 -31 55 -152 266 -166 288 -10 17 -104 179
-130 225 -9 17 -67 116 -127 220 -61 105 -119 206 -130 225 -11 19 -63 109
-116 200 -52 91 -106 183 -119 206 -12 23 -60 106 -106 185 l-83 144 -11343
-1 -11343 -1 32 56 c17 31 50 88 72 126 22 39 50 86 60 105 11 19 53 91 93
160 40 69 83 143 96 165 12 22 46 81 74 130 29 50 80 137 113 195 33 58 68
119 78 135 17 28 42 71 98 170 13 22 65 112 116 200 51 88 101 176 112 195 11
19 111 193 223 385 111 193 216 375 233 405 16 30 38 67 49 82 10 14 18 28 18
31 0 3 42 76 93 164 51 87 96 165 100 173 4 8 15 29 26 45 10 17 54 93 98 170
44 77 104 181 133 230 29 50 62 106 73 125 54 95 178 310 196 341 11 19 28 48
37 64 18 33 324 562 384 665 54 92 298 516 328 570 14 25 35 61 47 80 12 19
33 55 47 80 26 46 40 71 100 175 19 33 88 152 153 265 65 113 126 219 136 235
10 17 24 41 32 55 7 14 67 117 132 230 122 211 221 382 387 670 52 91 187 325
300 520 113 195 215 371 225 390 11 19 41 70 67 113 25 43 46 80 46 82 0 2 34
60 75 130 41 69 75 128 75 131 0 2 11 21 24 42 13 20 84 143 159 272 74 129
210 366 302 525 92 160 175 304 185 320 18 31 120 209 248 430 41 72 82 141
90 155 9 14 17 27 17 30 0 3 8 16 17 30 9 14 58 99 110 190 52 91 213 370 358
620 145 250 276 480 293 510 17 30 34 57 39 58 4 2 8 7 8 12 0 7 104 195 119
215 5 6 22 35 38 65 17 30 39 69 49 87 10 18 55 94 98 170 44 76 100 174 126
218 53 90 337 581 367 635 11 19 46 80 78 135 104 180 357 618 378 654 11 20
28 50 38 66 11 17 22 37 26 45 4 8 31 55 60 104 29 49 53 90 53 92 0 2 22 41
49 86 58 98 482 833 519 898 14 25 87 152 164 284 76 131 138 242 138 246 0 4
8 14 18 23 16 14 22 7 93 -116 302 -527 504 -876 520 -899 10 -15 19 -29 19
-32 0 -4 120 -214 161 -281 10 -16 24 -41 32 -55 7 -14 100 -176 207 -360 106
-184 206 -360 223 -390 16 -30 35 -61 41 -69 11 -14 17 -24 57 -98 15 -26 35
-62 45 -80 35 -58 87 -148 107 -183 10 -19 41 -72 68 -118 27 -45 49 -87 49
-92 0 -6 5 -10 10 -10 6 0 10 -4 10 -9 0 -8 59 -112 235 -416 32 -55 69 -120
83 -145 14 -25 28 -49 32 -55 4 -5 18 -28 30 -50 22 -40 128 -223 375 -650 70
-121 139 -240 153 -265 13 -25 46 -81 72 -125 26 -44 83 -143 127 -220 45 -77
164 -284 266 -460 101 -176 194 -336 204 -355 24 -42 138 -238 258 -445 48
-82 97 -168 109 -190 19 -35 398 -689 462 -800 13 -22 45 -78 71 -124 27 -45
57 -98 68 -117 11 -18 33 -57 49 -86 16 -29 37 -65 47 -80 11 -14 19 -28 19
-31 0 -3 27 -51 60 -107 33 -56 60 -104 60 -107 0 -2 14 -24 30 -48 17 -24 30
-46 30 -48 0 -3 64 -115 142 -249 77 -133 148 -256 156 -273 8 -16 23 -41 32
-55 10 -14 31 -50 48 -80 16 -30 78 -138 137 -240 59 -102 117 -201 128 -220
11 -19 62 -109 115 -200 52 -91 111 -192 129 -225 19 -33 38 -64 42 -70 5 -5
22 -35 38 -65 17 -30 53 -95 82 -143 28 -49 51 -93 51 -98 0 -5 5 -9 10 -9 6
0 10 -4 10 -10 0 -5 20 -44 45 -86 25 -41 45 -77 45 -80 0 -2 16 -28 35 -58
19 -30 35 -58 35 -61 0 -3 11 -22 24 -43 21 -34 145 -246 193 -332 11 -19 89
-154 173 -300 85 -146 170 -293 189 -328 20 -34 73 -127 119 -207 l83 -145
2404 0 c1323 0 2405 2 2405 4 0 3 -23 44 -51 93 -111 191 -163 280 -346 598
-105 182 -200 346 -212 365 -11 19 -29 51 -39 70 -10 19 -51 90 -90 157 -40
67 -72 126 -72 131 0 6 -3 12 -8 14 -6 2 -121 197 -238 405 -48 85 -194 338
-204 353 -11 18 -66 112 -92 158 -38 69 -582 1008 -599 1037 -11 17 -22 37
-26 45 -4 8 -49 87 -100 174 -51 87 -93 160 -93 162 0 1 -62 110 -138 241 -76
131 -210 362 -297 513 -87 151 -179 311 -205 355 -43 72 -121 209 -157 275 -8
14 -22 37 -31 52 -9 15 -46 78 -82 140 -35 62 -70 122 -77 133 -6 11 -20 36
-31 55 -10 19 -43 76 -72 125 -29 50 -62 106 -72 125 -11 19 -41 71 -67 115
-25 44 -50 88 -56 97 -5 10 -42 73 -81 140 -39 68 -162 282 -275 476 -112 193
-208 360 -214 370 -5 9 -28 49 -50 87 -22 39 -45 79 -52 90 -7 11 -16 27 -20
35 -4 8 -33 58 -64 112 -31 53 -70 120 -87 150 -16 29 -71 125 -122 213 -51
88 -101 174 -110 190 -257 445 -512 886 -546 943 -24 40 -44 75 -44 77 0 2
-14 28 -31 57 -31 52 -197 339 -236 408 -11 19 -76 132 -145 250 -160 277
-191 331 -201 350 -4 8 -16 29 -26 45 -11 17 -32 53 -47 80 -14 28 -35 62 -45
77 -11 14 -19 28 -19 31 0 3 -37 67 -81 143 -45 77 -93 159 -107 184 -30 53
-62 109 -337 585 -114 198 -260 450 -323 560 -63 110 -126 217 -139 237 -12
21 -23 40 -23 44 0 3 -8 18 -18 32 -11 15 -33 52 -49 82 -17 30 -88 154 -158
275 -70 121 -135 234 -145 250 -55 97 -258 447 -314 544 -36 62 -66 116 -66
118 0 3 -8 17 -19 31 -10 15 -33 54 -51 87 -53 96 -64 114 -129 223 -33 57
-61 106 -61 108 0 2 -11 23 -26 45 -14 22 -34 57 -46 77 -11 20 -113 197 -226
392 -112 195 -216 375 -230 400 -14 25 -45 78 -69 118 -24 41 -43 76 -43 79 0
2 -13 24 -30 48 -16 24 -30 46 -30 49 0 3 -37 70 -83 148 -46 79 -163 280
-259 448 -97 168 -184 319 -195 337 -10 18 -45 78 -77 135 -33 57 -105 182
-161 278 -56 96 -113 195 -127 220 -14 25 -58 101 -98 170 -39 69 -82 143 -95
165 -77 135 -215 372 -256 443 -27 45 -49 87 -49 92 0 6 -4 10 -10 10 -5 0
-10 4 -10 9 0 5 -19 42 -43 83 -24 40 -46 80 -50 88 -4 8 -17 31 -28 50 -12
19 -107 184 -212 365 -105 182 -253 437 -329 569 -76 131 -138 240 -138 242 0
1 -25 43 -55 93 -30 50 -55 93 -55 96 0 2 -16 29 -35 60 -20 30 -38 63 -42 73
-3 9 -14 28 -23 42 -10 14 -28 45 -42 70 -14 25 -76 133 -138 240 -63 107
-119 205 -126 218 -11 22 -14 19 -67 -70z"/>
</g>
</svg>
