<?xml version="1.0" standalone="no"?>
<!DOCTYPE svg PUBLIC "-//W3C//DTD SVG 20010904//EN"
 "http://www.w3.org/TR/2001/REC-SVG-20010904/DTD/svg10.dtd">
<svg version="1.0" xmlns="http://www.w3.org/2000/svg"
 width="16.000000pt" height="16.000000pt" viewBox="0 0 16.000000 16.000000"
 preserveAspectRatio="xMidYMid meet">
<metadata>
Created by potrace 1.11, written by Peter Selinger 2001-2013
</metadata>
<g transform="translate(0.000000,16.000000) scale(0.000384,-0.000384)"
fill="#000000" stroke="none">
<path d="M20764 38748 c-38 -66 -78 -137 -90 -157 -11 -20 -64 -110 -116 -201
-52 -91 -121 -210 -153 -265 -32 -55 -68 -116 -79 -137 -12 -20 -36 -62 -55
-95 -19 -32 -45 -78 -59 -103 -14 -25 -28 -49 -32 -55 -6 -9 -249 -430 -300
-520 -10 -18 -30 -52 -44 -74 -15 -22 -26 -43 -26 -47 0 -3 -8 -18 -19 -32
-10 -15 -29 -47 -43 -72 -25 -45 -61 -109 -383 -665 -92 -159 -178 -308 -190
-330 -13 -22 -46 -80 -75 -130 -29 -49 -103 -178 -165 -285 -61 -107 -146
-253 -187 -325 -42 -71 -84 -145 -94 -162 -11 -18 -69 -120 -130 -225 -61
-106 -161 -278 -221 -383 -280 -484 -713 -1233 -731 -1265 -12 -19 -27 -46
-35 -60 -7 -14 -46 -81 -86 -150 -96 -164 -116 -198 -139 -240 -21 -40 -292
-507 -340 -588 -18 -29 -32 -55 -32 -58 0 -2 -11 -23 -26 -45 -14 -22 -33 -55
-43 -72 -10 -18 -87 -151 -171 -296 -84 -146 -161 -280 -171 -297 -10 -18 -29
-51 -43 -73 -15 -22 -26 -43 -26 -45 0 -2 -27 -50 -60 -105 -33 -56 -60 -104
-60 -106 0 -3 -17 -34 -39 -68 -21 -34 -109 -186 -196 -337 -87 -151 -204
-354 -260 -450 -56 -96 -112 -193 -124 -215 -12 -22 -31 -56 -42 -75 -27 -45
-167 -286 -189 -325 -9 -16 -68 -118 -130 -225 -159 -275 -195 -338 -276 -479
-11 -20 -47 -81 -79 -136 -31 -55 -69 -120 -83 -145 -14 -25 -35 -61 -47 -80
-12 -19 -33 -55 -47 -80 -14 -25 -51 -90 -83 -145 -32 -55 -108 -188 -170
-295 -62 -107 -153 -265 -202 -350 -50 -85 -202 -348 -338 -585 -137 -236
-263 -455 -280 -485 -46 -79 -143 -248 -172 -299 -14 -24 -61 -104 -104 -178
-43 -75 -79 -136 -79 -138 0 -2 -17 -32 -38 -66 -22 -35 -50 -84 -64 -109 -33
-60 -49 -86 -158 -275 -51 -88 -136 -234 -188 -325 -52 -91 -136 -237 -187
-325 -51 -88 -102 -176 -112 -195 -11 -19 -52 -89 -91 -156 -38 -66 -104 -179
-144 -250 -41 -71 -119 -205 -173 -299 -54 -93 -106 -183 -115 -200 -10 -16
-59 -102 -110 -190 -114 -195 -455 -787 -482 -835 -11 -19 -69 -118 -128 -220
-59 -102 -135 -232 -167 -290 -94 -164 -244 -422 -264 -455 -10 -16 -22 -37
-26 -45 -4 -8 -43 -78 -88 -155 -45 -77 -127 -219 -182 -315 -56 -96 -110
-191 -122 -210 -11 -19 -42 -73 -69 -120 -27 -47 -75 -130 -107 -185 -31 -55
-65 -114 -75 -130 -9 -17 -128 -222 -263 -455 -134 -234 -257 -447 -272 -475
-15 -27 -34 -57 -41 -66 -8 -8 -14 -18 -14 -20 0 -3 -32 -61 -71 -130 -40 -68
-81 -140 -91 -159 -11 -19 -24 -39 -28 -45 -4 -5 -21 -35 -38 -65 -16 -30 -65
-116 -109 -190 -43 -75 -82 -142 -86 -150 -4 -8 -17 -31 -28 -50 -12 -19 -82
-141 -156 -270 -75 -129 -139 -239 -143 -245 -4 -5 -20 -32 -35 -60 -26 -48
-232 -406 -340 -590 -57 -99 -308 -532 -335 -580 -9 -16 -43 -75 -75 -130 -32
-55 -110 -190 -173 -300 -63 -110 -123 -213 -133 -230 -10 -16 -47 -82 -83
-145 -37 -63 -77 -133 -90 -155 -89 -153 -143 -247 -169 -295 -16 -30 -36 -62
-43 -71 -8 -8 -14 -18 -14 -20 0 -5 -49 -91 -245 -429 -122 -211 -111 -192
-260 -450 -62 -107 -146 -254 -188 -327 -42 -72 -85 -147 -96 -165 -43 -76
-209 -362 -276 -478 -40 -69 -82 -141 -93 -160 -80 -140 -139 -243 -204 -355
-130 -225 -268 -464 -361 -625 -49 -85 -104 -180 -122 -210 -18 -30 -44 -75
-58 -100 -13 -25 -41 -74 -62 -110 -21 -36 -45 -78 -55 -95 -9 -16 -64 -111
-122 -210 -57 -99 -116 -200 -130 -225 -14 -25 -92 -160 -173 -300 -82 -140
-158 -271 -169 -291 -12 -21 -41 -72 -66 -115 -24 -44 -50 -88 -57 -99 -7 -11
-15 -26 -19 -34 -4 -8 -37 -64 -72 -125 -36 -61 -92 -158 -125 -216 -87 -152
-87 -151 -181 -313 -47 -82 -97 -167 -110 -190 -13 -23 -80 -140 -150 -260
-69 -120 -126 -223 -126 -228 0 -5 -4 -9 -10 -9 -5 0 -10 -4 -10 -8 0 -5 -70
-129 -155 -277 -85 -147 -155 -270 -155 -272 0 -2 -8 -16 -19 -31 -14 -21
-275 -471 -389 -672 -17 -31 -270 -467 -494 -855 -189 -327 -613 -1061 -728
-1260 -69 -121 -180 -312 -245 -425 -65 -113 -167 -288 -225 -390 -59 -102
-142 -245 -185 -319 -42 -74 -85 -149 -95 -165 -9 -17 -43 -76 -75 -131 -32
-55 -66 -113 -75 -130 -9 -16 -38 -65 -64 -108 -25 -43 -46 -80 -46 -81 0 -2
-43 -76 -95 -165 -52 -90 -95 -165 -95 -168 0 -3 -8 -17 -19 -31 -10 -15 -29
-47 -43 -72 -22 -39 -52 -91 -189 -328 -166 -287 -327 -565 -344 -597 -12 -22
-52 -91 -89 -153 -36 -62 -77 -133 -91 -158 l-25 -44 20835 0 20835 0 -11 23
c-7 12 -40 69 -74 127 -52 88 -285 492 -352 610 -11 19 -78 134 -148 255 -70
121 -136 236 -147 255 -11 19 -27 49 -37 65 -10 17 -112 192 -226 390 -114
198 -219 377 -231 397 -13 21 -24 40 -24 42 0 2 -19 37 -43 78 -24 40 -55 93
-69 118 -30 53 -133 232 -158 275 -127 219 -236 408 -254 440 -29 52 -151 263
-284 490 -58 99 -116 200 -130 225 -27 48 -153 265 -183 315 -10 17 -24 41
-32 55 -28 52 -140 246 -158 275 -10 17 -22 37 -26 45 -4 8 -49 87 -100 174
-51 87 -93 160 -93 162 0 2 -25 44 -55 94 -30 50 -55 93 -55 96 0 2 -17 33
-38 67 -21 35 -41 70 -45 77 -4 8 -17 31 -28 50 -12 19 -82 141 -157 270 -74
129 -191 332 -260 450 -119 204 -162 280 -186 325 -6 11 -18 31 -27 45 -9 14
-52 88 -96 165 -265 460 -485 842 -493 855 -6 8 -13 22 -17 30 -4 8 -16 31
-28 50 -12 19 -68 116 -125 215 -56 99 -112 196 -125 215 -12 19 -43 73 -70
119 -73 129 -73 129 -226 394 l-144 248 -13097 0 c-7204 0 -13098 3 -13098 7
0 5 45 85 100 180 55 95 100 177 100 182 0 6 5 10 10 10 6 0 10 4 10 9 0 12
83 155 92 159 5 2 8 8 8 14 0 6 24 51 54 102 50 85 435 749 498 861 16 28 33
57 38 65 5 8 41 71 81 140 39 69 97 170 129 225 84 144 650 1124 670 1160 9
17 43 75 75 130 69 118 151 261 181 313 12 20 96 168 189 327 92 160 175 304
185 320 9 17 43 75 75 130 32 55 66 114 75 130 15 27 117 203 418 725 52 91
117 203 145 250 27 47 74 128 104 180 30 52 58 102 64 110 16 25 332 573 349
605 9 17 23 41 31 55 9 14 63 106 119 205 57 99 124 216 151 260 26 44 60 103
76 131 39 69 232 406 244 424 5 8 54 94 109 190 55 96 104 182 109 190 9 14
175 301 211 365 10 17 93 161 185 320 92 160 269 466 393 680 124 215 233 404
243 420 11 17 22 36 26 44 4 8 42 76 86 150 43 75 89 154 102 176 12 22 40 69
60 105 21 36 55 94 75 130 20 36 67 116 103 179 37 62 67 115 67 118 0 2 11
20 24 41 13 20 159 272 324 558 166 287 312 541 326 565 14 24 46 80 71 124
26 44 54 94 64 110 10 17 80 138 156 270 76 132 160 277 186 323 27 45 49 85
49 89 0 4 6 14 14 22 7 9 27 41 43 71 17 30 63 111 103 180 64 110 191 330
240 415 126 221 216 375 231 397 11 15 19 29 19 32 0 3 20 40 45 82 25 41 45
78 45 80 0 2 11 21 24 42 12 20 50 84 84 142 33 58 126 220 207 360 81 140
189 327 240 415 101 175 381 659 413 715 10 19 43 76 72 125 29 50 63 108 75
130 49 85 306 531 314 545 10 15 102 174 174 299 62 109 117 204 136 236 22
36 198 342 254 440 22 39 70 122 107 185 37 63 78 135 92 160 27 48 139 243
143 247 1 2 11 -16 24 -40 23 -44 36 -66 62 -107 9 -14 30 -50 47 -80 16 -30
94 -165 172 -300 78 -135 156 -270 172 -300 17 -30 39 -67 49 -82 11 -14 19
-28 19 -31 0 -4 172 -305 210 -367 5 -8 37 -64 72 -124 84 -145 101 -174 165
-286 31 -52 63 -108 73 -125 196 -341 359 -623 466 -808 57 -98 104 -181 104
-183 0 -3 9 -17 19 -32 16 -23 272 -464 349 -602 14 -25 63 -109 109 -188 45
-78 83 -145 83 -148 0 -3 8 -18 19 -32 16 -23 42 -67 85 -147 6 -11 16 -27 22
-35 6 -8 27 -44 46 -80 20 -36 57 -100 82 -143 25 -43 46 -82 46 -87 0 -6 5
-10 10 -10 6 0 10 -4 10 -9 0 -6 29 -60 65 -121 36 -61 76 -130 89 -153 13
-23 53 -93 90 -156 36 -62 66 -115 66 -117 0 -2 18 -33 40 -69 22 -36 40 -68
40 -71 0 -2 8 -17 19 -32 10 -15 65 -108 122 -207 56 -99 141 -245 187 -325
46 -80 93 -161 104 -180 11 -19 55 -96 98 -170 43 -74 87 -151 97 -170 11 -19
83 -143 160 -275 76 -132 142 -247 146 -255 4 -8 13 -24 20 -35 16 -27 60
-101 120 -205 27 -47 52 -92 57 -100 5 -8 37 -64 72 -124 35 -60 74 -127 87
-150 13 -23 65 -113 116 -201 51 -88 105 -182 122 -210 16 -27 32 -57 36 -65
4 -8 15 -28 26 -45 10 -16 27 -46 38 -65 20 -35 208 -360 454 -785 70 -121
136 -236 148 -255 11 -19 24 -41 28 -49 3 -8 35 -64 71 -125 36 -61 75 -130
88 -153 13 -23 53 -92 89 -153 36 -61 65 -115 65 -121 0 -5 5 -9 10 -9 6 0 10
-4 10 -10 0 -5 47 -89 103 -187 57 -98 156 -268 219 -378 63 -110 141 -245
173 -300 90 -156 765 -1325 785 -1359 10 -17 68 -119 130 -226 62 -107 145
-251 185 -320 40 -69 96 -165 125 -215 28 -49 62 -108 75 -130 12 -22 31 -56
42 -75 34 -57 113 -194 123 -210 5 -8 28 -48 51 -88 l41 -72 2778 0 2778 0
-71 123 c-39 67 -80 138 -91 159 -12 20 -36 62 -55 95 -19 32 -42 72 -51 88
-10 17 -86 149 -170 295 -84 146 -162 281 -173 300 -10 19 -39 68 -63 107 -24
40 -44 75 -44 79 0 3 -8 18 -19 32 -10 15 -30 48 -43 73 -30 53 -338 588 -438
759 -37 63 -79 135 -92 160 -14 25 -65 113 -113 195 -48 83 -99 170 -113 195
-14 25 -72 125 -129 223 -56 98 -103 180 -103 183 0 3 -8 17 -19 32 -31 45
-241 413 -241 423 0 5 -4 9 -10 9 -5 0 -10 4 -10 9 0 5 -38 75 -85 156 -47 80
-96 165 -109 188 -12 23 -61 107 -108 187 -80 137 -150 260 -196 341 -11 20
-39 67 -61 104 -23 37 -41 68 -41 70 0 2 -79 139 -175 304 -96 166 -185 321
-198 344 -13 23 -33 58 -44 77 -20 35 -222 383 -261 450 -12 19 -38 67 -60
105 -49 89 -65 116 -75 129 -17 23 -427 740 -427 747 0 4 -3 9 -7 11 -5 2 -15
17 -24 33 -8 17 -100 176 -204 355 -103 179 -199 345 -213 370 -14 25 -71 124
-127 220 -105 181 -139 240 -171 300 -11 19 -21 37 -24 40 -3 3 -11 16 -19 30
-8 14 -70 122 -139 240 -68 118 -134 233 -147 255 -12 22 -36 64 -54 93 -17
29 -31 57 -31 62 0 6 -4 10 -10 10 -5 0 -10 4 -10 9 0 8 -127 230 -455 796
-51 88 -100 174 -109 190 -9 17 -26 46 -37 65 -18 30 -367 634 -419 725 -10
17 -64 111 -122 210 -166 286 -443 766 -470 815 -14 25 -53 92 -86 148 -34 57
-62 105 -62 107 0 2 -17 32 -38 66 -21 35 -52 89 -69 119 -17 30 -70 123 -118
205 -48 83 -99 170 -113 195 -14 25 -42 74 -64 109 -21 34 -38 65 -38 68 0 2
-20 37 -43 76 -24 40 -55 92 -69 117 -14 25 -67 117 -118 205 -51 88 -102 176
-112 195 -11 19 -69 118 -128 220 -59 102 -118 205 -132 230 -14 25 -65 113
-113 195 -48 83 -101 175 -118 205 -17 30 -41 72 -53 92 -13 20 -43 72 -67
115 -24 43 -92 160 -150 260 -59 101 -107 184 -107 186 0 2 -25 45 -55 95 -30
50 -55 96 -55 102 0 5 -4 10 -10 10 -5 0 -10 4 -10 9 0 10 -179 323 -309 541
-11 19 -24 41 -28 49 -4 8 -66 116 -138 240 -72 124 -134 233 -138 241 -4 8
-16 30 -28 49 -86 143 -839 1454 -839 1461 0 6 -4 10 -9 10 -5 0 -12 8 -15 18
-4 10 -22 45 -42 78 -20 32 -48 82 -63 109 -16 28 -74 128 -130 224 -55 96
-101 176 -101 178 0 2 -16 29 -35 59 -19 30 -48 78 -63 107 -16 28 -95 167
-177 307 -153 264 -171 296 -205 355 -93 163 -231 401 -240 415 -5 8 -17 29
-26 45 -9 17 -125 217 -257 445 -132 228 -248 430 -258 447 -10 18 -69 119
-130 225 -61 106 -119 207 -129 223 -37 66 -122 211 -130 225 -9 14 -210 364
-249 433 -10 17 -46 79 -80 135 -33 57 -61 106 -61 108 0 2 -18 33 -40 69 -22
36 -40 67 -40 69 0 2 -43 77 -96 167 -53 90 -108 187 -124 214 -46 84 -292
509 -305 527 -10 15 -21 1 -81 -104z"/>
</g>
</svg>
