<svg version="1" xmlns="http://www.w3.org/2000/svg" width="4116" height="4116" viewBox="0 0 3087.000000 3087.000000"><path d="M1525.9 263.7c-9.5 16.4-18.8 32.5-20.6 35.8-1.9 3.3-3.8 6.7-4.3 7.5-.5.8-5.8 9.8-11.6 20s-11.8 20.5-13.2 23c-1.5 2.5-3.3 5.8-4.2 7.3-.8 1.5-7.2 12.6-14.1 24.5-7 11.9-13.4 23-14.3 24.7-.9 1.6-2.9 5.1-4.4 7.6-2.3 3.9-19.9 34.2-25.5 44.2-5.1 8.9-35.7 61.7-37.6 64.7-1.1 1.9-2.4 4.2-2.8 5-.4.8-7.6 13.4-16 27.9-8.4 14.5-15.3 26.8-15.3 27.2 0 .5-.4.9-1 .9-.5 0-1 .5-1 1.1 0 .6-2.3 4.9-5.1 9.7-2.9 4.8-6.1 10.3-7.2 12.2-1.1 1.9-7 12.3-13.2 23-6.2 10.7-12.1 21.1-13.2 23-1.1 1.9-5.9 10.2-10.7 18.3-4.7 8.2-8.6 15.3-8.6 15.8s-.4.9-1 .9c-.5 0-1 .4-1 .9s-1.5 3.6-3.4 6.8c-4.6 7.8-30.6 52.7-42.4 73.3-5.3 9.1-10.9 19-12.5 22-1.7 3-3.5 6.2-4.2 7-.7.8-2.6 4-4.2 7-1.7 3-4.1 7.3-5.4 9.6-1.3 2.3-6.2 10.8-10.9 19-4.6 8.2-8.8 15-9.2 15.2-.4.2-.8.8-.8 1.2 0 .8-6 11.4-36.8 64.4-4.1 7.2-8.3 14.5-9.3 16.4-2.9 5-16.1 27.9-19.8 34-1.7 2.9-3.1 5.7-3.1 6.2 0 .6-.4 1-1 1-.5 0-1 .4-1 1 0 .5-6.5 12.1-14.4 25.7-25.2 43.6-32.8 56.7-34.8 60.3-1.1 1.9-10.6 18.3-21.1 36.5-10.5 18.1-20.5 35.5-22.2 38.5-1.8 3-6.7 11.6-11 19s-8.7 15.1-9.8 17c-3.8 6.9-72.8 126-74.7 129.2-1.1 1.8-2.3 3.9-2.6 4.7-.8 1.5-5.4 9.5-19.4 33.6-5.1 8.8-10.6 18.5-12.3 21.5-1.6 3-3.6 6.2-4.3 7.1-.8.8-1.4 1.8-1.4 2.2 0 .3-3 5.7-6.6 11.9-3.7 6.2-7.7 13.1-8.9 15.3-1.2 2.2-7.2 12.7-13.4 23.4s-12.5 21.5-13.9 24c-1.4 2.5-3.5 6.2-4.7 8.1-1.2 1.9-3.3 5.5-4.7 8-1.4 2.5-11.9 20.7-23.3 40.5s-21.6 37.3-22.5 39c-1.4 2.6-12.3 21.3-18.8 32.5-3.4 5.7-15.1 26.2-17.5 30.5-1.2 2.2-2.5 4.1-2.9 4.3-.5.2-.8.7-.8 1.2 0 .4-3.9 7.5-8.6 15.7-4.8 8.1-9.5 16.4-10.6 18.3-3.9 6.8-29.3 50.7-37.9 65.7-4.9 8.3-9.7 16.7-10.7 18.5-1.1 1.8-13.7 23.7-28.1 48.6-14.3 24.9-26.1 45.6-26.1 46.1s-.4 1.1-.9 1.3c-.5.1-2.2 2.8-3.9 5.8-1.6 3-11.3 19.9-21.4 37.5-10.2 17.6-22.9 39.6-28.3 49-5.4 9.3-13.5 23.3-18 31-4.4 7.7-8.4 14.7-8.8 15.5-.4.8-1.6 2.8-2.6 4.5-1 1.6-6.9 11.8-13.1 22.5-6.2 10.7-14.4 24.9-18.2 31.5-3.8 6.6-7.3 12.7-7.8 13.5-1.2 2.1-10.1 17.5-22.4 38.9-5.8 10.1-10.6 18.6-10.6 18.9 0 .3-.6 1.3-1.4 2.1-.7.9-2.7 4.1-4.3 7.1-1.7 3-14 24.4-27.3 47.5-13.4 23.1-25.2 43.6-26.3 45.5-1 1.9-2.3 3.9-2.7 4.5-.4.5-1.9 3.1-3.3 5.7-1.4 2.5-6 10.6-10.3 18-4.2 7.3-12 20.7-17.2 29.8-5.2 9.1-11.7 20.2-14.3 24.8-2.7 4.5-4.9 8.4-4.9 8.7 0 .2-1.3 2.4-3 4.8-1.6 2.5-3 4.8-3 5.1 0 .4-1.6 3.2-3.5 6.2s-3.5 5.6-3.5 5.9c0 .5-23.3 40.9-38.4 66.5-3.1 5.3-5.6 10.1-5.6 10.8 0 .7-.3 1.2-.7 1.2-.5 0-1.3 1-1.9 2.3-.6 1.2-6.2 11-12.4 21.7s-15.6 26.9-20.8 35.9c-5.2 9-10.3 17.8-11.3 19.5-1 1.7-3.3 5.8-5.2 9.1-6.6 11.8-52.6 91.2-57.6 99.5-1.1 1.9-2.4 4.2-2.8 5-.4.8-4.5 8-9.1 16-4.7 8-9.4 16.1-10.5 18-3 5.4-30.9 53.6-41.2 71.5l-11.3 19.5c-1 1.9-5.4 9.4-9.6 16.6-4.2 7.2-7.6 13.6-7.6 14.1 0 .6 543.8.9 1442.5.9 1437.4 0 1442.5 0 1441.9-2-.4-1.1-1.1-2.4-1.6-3-.7-.9-15.5-26.6-24.2-42.1-1.3-2.2-4.4-7.6-7-12-2.6-4.4-5.1-8.7-5.6-9.5-.5-.8-2.2-3.8-3.8-6.6-1.7-2.8-4.7-8.2-6.8-12-2-3.8-4.3-7.6-5-8.5-.8-.8-1.4-1.8-1.4-2.1 0-.5-6.3-11.7-10-17.8-1.8-3.1-31.6-54.6-34.3-59.4-1.6-2.8-4.4-7.6-6.2-10.6-1.8-3-4.5-7.8-6-10.5-2.9-5.1-8.2-14.3-10-17.3-1.3-2.2-9.7-16.7-12.3-21.2-1.1-1.9-5.2-9.1-9.2-16-4-6.9-8.3-14.3-9.5-16.5-1.3-2.2-7.1-12.3-13-22.5-11.8-20.3-13.5-23.3-16.5-28.6-1.1-1.9-10.4-18-20.6-35.7-10.2-17.7-22.9-39.6-28.1-48.7-5.2-9.1-11.2-19.4-13.3-23-2.1-3.6-11.7-20.2-21.3-37-9.7-16.8-18.6-32.1-19.9-34l-2.4-3.5h-865.6c-476.1.1-865.5-.1-865.4-.5 5-8.8 33.6-58.2 37.8-65.3 3.2-5.4 5.8-9.9 5.8-10.1 0-.2 3.5-6.4 7.8-13.7 9.2-15.8 7.2-12.4 22.2-38.2 6.6-11.4 12-21.1 12-21.4 0-.4.6-1.4 1.4-2.2.7-.9 2.8-4.3 4.6-7.6 3.3-5.9 16.2-28.5 26.4-46 2.9-5 7-11.9 9-15.5 2-3.6 4.1-7.2 4.6-8 3.4-5.3 13-22.3 13-22.9 0-.5.8-1.9 1.8-3.2 1.1-1.3 3.1-4.7 4.7-7.4 3-5.4 20-34.8 23.4-40.5 1.1-1.9 2.4-4.2 2.8-5 .9-1.8 11.9-20.9 13.3-23 .6-.8 1.6-2.6 2.3-4 .7-1.4 3.1-5.7 5.3-9.5 2.3-3.9 5.1-8.6 6.2-10.5 1.1-1.9 5.2-9.1 9.2-16 4.1-6.9 9-15.4 10.9-18.8 2-3.5 4.1-7.1 4.6-8.1 1.4-2.2 9.8-16.8 12.3-21.1 1-1.9 6.1-10.7 11.2-19.5s11.3-19.6 13.9-24c2.5-4.4 5-8.8 5.6-9.7.5-.9 2.3-4.1 3.9-7 1.5-2.9 3.4-6 4.2-6.9.8-.8 1.4-1.8 1.4-2.2 0-.6 22.5-39.8 29.6-51.5 2.4-4 4.4-7.4 4.4-7.6 0-.3 29.3-51.4 31.9-55.6.5-.8 4.4-7.6 8.7-15 13.4-23.3 50.4-87.4 51.3-89 .5-.8 4.1-6.9 7.9-13.5 3.8-6.6 11.8-20.6 17.9-31 6-10.5 12.1-21 13.5-23.5 3.8-6.7 24.2-42 26.7-46 1.1-1.9 3.2-5.6 4.6-8.2 1.4-2.6 5-8.8 8-13.8s5.5-9.3 5.5-9.6c0-.2 1.2-2.3 2.7-4.7 1.4-2.3 4-6.7 5.6-9.7 1.6-3 3.5-6.2 4.1-7 .7-.8 2.5-4 4-7 1.6-3 3.5-6.2 4.2-7.1.8-.8 1.4-1.8 1.4-2.1 0-.2 6.4-11.5 14.1-24.9 7.8-13.4 15-25.9 16.1-27.7 1-1.8 5.3-9.3 9.5-16.5 4.2-7.3 11-19.1 15.1-26.2 4.1-7.2 7.8-13.4 8.2-13.8.4-.5 1.4.4 2.2 2 .8 1.5 8.2 14.5 16.5 28.8s16.1 27.8 17.3 30c1.2 2.2 8 13.9 15 26s13.7 23.6 14.8 25.5c1 1.9 7 12.3 13.2 23 6.3 10.7 13 22.4 15 26 3.9 6.9 18.7 32.4 27.5 47.5 2.9 4.9 6.4 11 7.8 13.5 1.4 2.5 7.3 12.8 13.2 23 5.9 10.2 13.2 22.8 16.2 28 3 5.2 5.8 10.2 6.3 11 1.3 2 20.6 35.3 23.4 40.4 4.3 7.6 6.3 11.1 11 18.9 2.5 4.3 4.6 8.1 4.6 8.3 0 .2 1.1 2.1 2.4 4.2 1.2 2 11.8 20.1 23.3 40.2 11.6 20.1 22 38.1 23.1 40 1.1 1.9 3.3 5.7 4.7 8.5 1.5 2.7 3.2 5.7 3.9 6.5.6.8 1.6 2.4 2.2 3.5 2.3 4.2 24.7 43 25.1 43.5.4.5 577.3.9 577.3.4 0-.3-32-56-41.3-71.9-3.8-6.6-8.3-14.5-10-17.5-1.7-3-3.8-6.7-4.9-8.2-1-1.4-1.8-2.9-1.8-3.2 0-.4-1.1-2.3-2.4-4.4-2-3.2-25.1-43-30.9-53.2-1-1.9-5.3-9.4-9.5-16.5-4.1-7.2-8.3-14.4-9.2-16-6.7-11.8-26-45.1-29.1-50.3-2.2-3.5-3.9-6.5-3.9-6.7 0-.3-2.2-4.2-4.9-8.7-2.7-4.6-5.8-9.9-6.8-11.8-1.1-1.9-9.6-16.6-18.8-32.5-9.2-16-20.8-36-25.7-44.5-4.9-8.5-9.4-16.2-9.9-17-4-6.3-24.9-43.4-24.9-44.1 0-.5-.4-.9-1-.9-.5 0-1-.4-1-.9s-2.3-4.9-5.1-9.8c-2.8-4.8-6-10.4-7.1-12.3-1.1-1.9-2.4-4-2.8-4.5-.4-.6-2.1-3.5-3.7-6.5-1.7-3-9.4-16.5-17.2-29.8-7.7-13.4-14.1-24.6-14.1-24.8 0-.2-2.2-4.1-5-8.5-2.7-4.4-5-8.3-5-8.5 0-.2-1.1-2.1-2.3-4.2-1.3-2-3.5-5.7-4.9-8.2-1.4-2.5-4.3-7.4-6.3-11-2.1-3.6-4.8-8.3-6-10.5-1.2-2.2-9.6-16.6-18.5-32-9-15.4-16.8-28.9-17.4-30-1.8-3.1-14-24.4-15.1-26.3-.6-.9-2.8-4.8-5-8.7-2.2-3.8-4.5-7.9-5.2-9-.7-1.1-1.5-2.7-1.9-3.5-.4-.8-1.2-2.2-1.9-3-.7-.8-2.9-4.5-4.9-8.3-2-3.7-5.7-10.1-8.1-14.3-2.5-4.2-4.5-7.7-4.5-7.9 0-.1-2.5-4.4-5.5-9.5-3.1-5.1-7.2-12.2-9.2-15.9-2-3.6-4.2-7.3-4.9-8.2-.8-.8-1.4-1.8-1.4-2.2 0-.4-2.2-4.4-4.9-8.9-4.1-7-9.3-16-18.1-31.3-24.6-42.7-32.6-56.6-34.6-59.7-1.3-2.1-2.4-4-2.4-4.3 0-.2-4.3-7.7-9.5-16.6-5.2-8.9-9.5-16.3-9.5-16.4 0-.1-2.5-4.4-5.5-9.4-3-5.1-5.5-9.3-5.5-9.5 0-.2-4.6-8.2-10.1-17.7-5.6-9.6-11.2-19.2-12.4-21.4-1.2-2.2-3-5.4-4.1-7.2-1-1.8-6.9-11.9-13-22.5-25.1-43.5-40.8-70.5-43.1-74.7-1.4-2.5-3.9-6.8-5.6-9.5-1.6-2.8-3.7-6.5-4.7-8.1-.9-1.7-9.3-16.3-18.7-32.5-9.3-16.2-20.2-35.1-24.1-42-4-6.9-7.7-13.2-8.2-14-.6-.8-1.3-2.2-1.7-3-.4-.8-2.2-3.8-4-6.7-1.8-2.9-3.3-5.5-3.3-5.9 0-.4-1.7-3.4-3.8-6.8-2.1-3.4-4.2-6.8-4.6-7.6-.4-.8-1.2-2.4-1.9-3.5s-5.7-9.8-11.2-19.3c-5.5-9.5-10.7-18.5-11.6-20-.9-1.5-2.8-5-4.4-7.7-4.1-7.1-8.3-14.4-10.7-18.5-2.6-4.4-39.3-68.1-42.4-73.5-1.2-2.2-5.4-9.4-9.3-16-3.8-6.6-8.8-15.2-10.9-19-4.4-7.9-50.7-88.2-52.1-90.5-1.1-1.7-17.8-30.6-20.9-36-3.4-6.1-19.4-33.5-19.7-33.8-.1-.2-8.1 13.1-17.6 29.5z"/></svg>