<svg id="Layer_1" data-name="Layer 1" xmlns="http://www.w3.org/2000/svg" viewBox="0 0 1000 989.43"><title>logo1</title><g id="Layer_1-2" data-name="Layer_1"><g id="_61329392" data-name=" 61329392"><path id="_61375096" data-name=" 61375096" d="M601.6,403.81c0,8.21,2.48,16,10.7,16h48.13v53.48c0,6.16,1.86,8,8,8h18.72c6.16,0,8-1.86,8-8V419.85h48.13a10.28,10.28,0,0,0,10.7-10.7v-16c0-6.16-1.86-8-8-8h-50.8V331.61c0-6.16-1.86-8-8-8H668.45c-6.16,0-8,1.86-8,8v53.48H612.3c-8.22,0-10.7,7.83-10.7,16Z" transform="translate(0 -5.28)"/><path id="_60382664" data-name=" 60382664" d="M440.44,5.28C303.21,37.55,218.86,70.38,137.07,161.2,71.65,233.84,0,345.42,0,481.35v16C0,649,65.32,766.31,139.64,844.38c64.72,68,202.56,150.34,333.62,150.34h48.13c131,0,262-73.44,328.21-139.7C892,812.6,919.85,778,948.3,721.09c20.46-40.9,51.7-122.39,51.7-180.92V460c0-117.24-83.34-247.77-143.72-308.15-44.58-44.58-76-60.83-130.06-94.53C697.28,39.24,596.91,8.08,550.8,8.08L534.71,99c197.52,16.44,371.71,183.75,371.71,395.73v10.7c0,218.26-186.35,395.72-406.42,395.72-210.54,0-403.74-175-403.74-379.68V476c0-83.39,44.18-170.13,80.95-218.52,32.47-42.73,113.05-115.72,170.39-129.07L253.13,713.82l67.73.14C323.65,680.35,339,590.71,347,558.31c10.56-42.71,28.6-103.7,78.12-103.7h8c56.09,0,32.95,75,25.63,116.54-6.18,35.08-23,111.67-23,142.82h66.85c13.48-57.85,19.69-124.7,30.52-186.06,11.7-66.35,1.07-129.45-70.62-129.45h-5.35c-60.5,0-67.79,39.92-94,58.75L440.44,5.29Z" transform="translate(0 -5.28)"/></g></g></svg>