<?xml version="1.0" encoding="utf-8"?>
<!-- Generator: Adobe Illustrator 21.0.1, SVG Export Plug-In . SVG Version: 6.00 Build 0)  -->
<svg version="1.1" id="Layer_1" xmlns="http://www.w3.org/2000/svg" xmlns:xlink="http://www.w3.org/1999/xlink" x="0px" y="0px"
	 viewBox="0 0 1000 1000" style="enable-background:new 0 0 1000 1000;" xml:space="preserve">
<g id="Layer_x0020_1">
	<g id="_61329392">
		<path id="_61375096" d="M601.6,403.8c0,8.2,2.5,16,10.7,16h48.1v53.5c0,6.2,1.9,8,8,8h18.7c6.2,0,8-1.9,8-8v-53.5h48.1
			c6.3,0,10.7-4.4,10.7-10.7v-16c0-6.2-1.9-8-8-8h-50.8v-53.5c0-6.2-1.9-8-8-8h-18.7c-6.2,0-8,1.9-8,8v53.5h-48.1
			c-8.2,0-10.7,7.8-10.7,16V403.8z"/>
		<path id="_60382664" d="M440.4,5.3C303.2,37.6,218.9,70.4,137.1,161.2C71.7,233.8,0,345.4,0,481.3v16
			c0,151.7,65.3,268.9,139.6,347c64.7,68,202.6,150.3,333.6,150.3h48.1c131,0,262-73.4,328.2-139.7c42.4-42.4,70.2-77.1,98.7-133.9
			c20.5-40.9,51.7-122.4,51.7-180.9V460c0-117.2-83.3-247.8-143.7-308.2c-44.6-44.6-76-60.8-130.1-94.5
			c-28.9-18-129.3-49.2-175.4-49.2L534.7,99c197.5,16.4,371.7,183.8,371.7,395.7v10.7c0,218.3-186.4,395.7-406.4,395.7
			c-210.5,0-403.7-175-403.7-379.7V476c0-83.4,44.2-170.1,80.9-218.5c32.5-42.7,113.1-115.7,170.4-129.1l-94.5,585.4l67.7,0.1
			c2.8-33.6,18.1-123.3,26.2-155.7c10.6-42.7,28.6-103.7,78.1-103.7h8c56.1,0,32.9,75,25.6,116.5c-6.2,35.1-23,111.7-23,142.8h66.8
			c13.5-57.9,19.7-124.7,30.5-186.1c11.7-66.3,1.1-129.4-70.6-129.4h-5.3c-60.5,0-67.8,39.9-94,58.7L440.4,5.3L440.4,5.3z"/>
	</g>
</g>
</svg>
