<svg xmlns="http://www.w3.org/2000/svg" viewBox="0 0 738.82 630"><defs><style>.cls-1{isolation:isolate;}.cls-2{fill:blue;}.cls-2,.cls-3,.cls-4{mix-blend-mode:screen;}.cls-3{fill:lime;}.cls-4{fill:red;}</style></defs><title>icon-delta-tricolor</title><g class="cls-1"><g id="Layer_2" data-name="Layer 2"><polygon class="cls-2" points="484.97 510 346.41 510 207.85 510 346.41 270 415.69 390 554.26 390 346.41 30 0 630 692.82 630 623.54 510 484.97 510"/><polygon class="cls-3" points="507.97 495 369.41 495 230.85 495 369.41 255 438.69 375 577.26 375 369.41 15 23 615 715.82 615 646.54 495 507.97 495"/><polygon class="cls-4" points="530.97 480 392.41 480 253.85 480 392.41 240 461.69 360 600.26 360 392.41 0 46 600 738.82 600 669.54 480 530.97 480"/></g></g></svg>