<svg id="Layer_1" data-name="Layer 1" xmlns="http://www.w3.org/2000/svg" viewBox="0 0 999.61 555.08"><defs><style>.cls-1,.cls-3{fill:#fff;}.cls-2,.cls-3{isolation:isolate;}.cls-3{font-size:108.68px;font-family:ArialMT, Arial;}</style></defs><title>2m2b</title><g id="drawing"><g id="page"><g id="Solid"><path class="cls-1" d="M294.77,722.71h0V710.14L578.95,546l7.84,1.8v6.29Z" transform="translate(0 -239.45)"/></g><g class="cls-2"><text class="cls-3" transform="translate(836.6 519.79)">OH</text></g><g id="Solid-2" data-name="Solid"><path class="cls-1" d="M586.79,554.1h0v-6.29l4.19-3.89L828.93,681.34l-2.69,4.73-2.75,4.73Z" transform="translate(0 -239.45)"/></g><g id="Solid-3" data-name="Solid"><path class="cls-1" d="M294.77,710.14h0v12.57L0,552.54l2.75-4.73,2.75-4.73Z" transform="translate(0 -239.45)"/></g><g id="Wedged_Hash_Begin_Bond" data-name="Wedged Hash Begin Bond"><path class="cls-1" d="M591.52,550.57h0l-9.46-5.51,4.67-9.82,11,6.29Z" transform="translate(0 -239.45)"/><path class="cls-1" d="M608.41,526h0l-13.59-7.84,4.73-9.88L614.63,517Z" transform="translate(0 -239.45)"/><path class="cls-1" d="M625.35,501.53h0l-17.78-10.24,4.73-9.88,19.22,11.14Z" transform="translate(0 -239.45)"/><path class="cls-1" d="M642.24,477h0L620.32,464.4l4.73-9.88,23.41,13.53Z" transform="translate(0 -239.45)"/><path class="cls-1" d="M659.12,452.55h0l-26-15,4.73-9.88,27.54,15.93Z" transform="translate(0 -239.45)"/><path class="cls-1" d="M676.07,428.06h0l-30.18-17.42,4.67-9.88,31.67,18.32Z" transform="translate(0 -239.45)"/><path class="cls-1" d="M693,403.57h0l-34.31-19.82,4.67-9.88,35.87,20.72Z" transform="translate(0 -239.45)"/><path class="cls-1" d="M709.9,379.08h0l-38.5-22.21,4.67-9.88,40,23.11Z" transform="translate(0 -239.45)"/><path class="cls-1" d="M726.78,354.59h0L684.15,330l4.67-9.88L733,345.61Z" transform="translate(0 -239.45)"/><path class="cls-1" d="M743.67,330.1h0l-46.76-27,4.67-9.88,48.32,27.9Z" transform="translate(0 -239.45)"/><path class="cls-1" d="M760.61,305.61h0l-51-29.4,4.67-9.88,52.45,30.3Z" transform="translate(0 -239.45)"/><path class="cls-1" d="M777.5,281.12h0l-55.09-31.79,4.67-9.88,56.64,32.69Z" transform="translate(0 -239.45)"/></g><g id="WedgeBegin"><path class="cls-1" d="M591,543.92h0l-4.19,3.89-7.84-1.8L389.86,272.14l28.32-16.35,28.32-16.35Z" transform="translate(0 -239.45)"/></g></g></g></svg>