<?xml version="1.0" encoding="utf-8"?>
<!-- Generator: Adobe Illustrator 13.0.0, SVG Export Plug-In . SVG Version: 6.00 Build 14948)  -->
<!DOCTYPE svg PUBLIC "-//W3C//DTD SVG 1.0//EN" "http://www.w3.org/TR/2001/REC-SVG-20010904/DTD/svg10.dtd">
<svg version="1.0" id="Layer_2" xmlns="http://www.w3.org/2000/svg" xmlns:xlink="http://www.w3.org/1999/xlink" x="0px" y="0px"
	 width="884.956px" height="575.971px" viewBox="0 0 884.956 575.971" enable-background="new 0 0 884.956 575.971"
	 xml:space="preserve">
<rect fill="#FFFFFF" width="884.956" height="575.971"/>
<path fill="#B7E060" stroke="#000000" stroke-width="5" d="M82.565,561.549c0,0,34.056,0.619,39.009,0s36.533-4.954,60.681-49.536
	c0,0,29.721-55.108,62.539-48.297s77.4,12.384,108.979,12.384s99.689-12.384,115.17-3.096s53.251,45.201,65.016,57.585
	s27.244,17.338,45.201,18.576s29.103,0,29.103,0"/>
<path fill="#FEE36A" stroke="#000000" stroke-width="5" d="M245.887,90.391c0,0,3,42,0,58s-28,50-39,73s-14,43-18,62s-10,80,17,100
	s73,39,140,39s145-1,145-84s-74-124-92-138s-31-44-31-57s-3-30-8-51s-7-52-6-56s1-4,1-4"/>
<g>
	<circle fill="#FFFFFF" stroke="#000000" stroke-width="2" cx="330.232" cy="293.103" r="22.141"/>
	<circle fill="#FFFFFF" stroke="#000000" stroke-width="2" cx="318.25" cy="288.969" r="2.062"/>
	<circle fill="#FFFFFF" stroke="#000000" stroke-width="2" cx="330.404" cy="283.109" r="2.062"/>
	<circle fill="#FFFFFF" stroke="#000000" stroke-width="2" cx="343.101" cy="283.109" r="2.062"/>
	<circle fill="#FFFFFF" stroke="#000000" stroke-width="2" cx="340.822" cy="297.217" r="2.062"/>
	<circle fill="#FFFFFF" stroke="#000000" stroke-width="2" cx="334.854" cy="308.069" r="2.062"/>
	<circle fill="#FFFFFF" stroke="#000000" stroke-width="2" cx="326.172" cy="295.155" r="2.062"/>
</g>
<g>
	<circle fill="#FFFFFF" stroke="#000000" stroke-width="2" cx="451.565" cy="332.77" r="22.141"/>
	<circle fill="#FFFFFF" stroke="#000000" stroke-width="2" cx="439.583" cy="328.636" r="2.062"/>
	<circle fill="#FFFFFF" stroke="#000000" stroke-width="2" cx="451.738" cy="322.776" r="2.062"/>
	<circle fill="#FFFFFF" stroke="#000000" stroke-width="2" cx="464.434" cy="322.776" r="2.063"/>
	<circle fill="#FFFFFF" stroke="#000000" stroke-width="2" cx="462.155" cy="336.884" r="2.062"/>
	<circle fill="#FFFFFF" stroke="#000000" stroke-width="2" cx="456.187" cy="347.736" r="2.062"/>
	<circle fill="#FFFFFF" stroke="#000000" stroke-width="2" cx="447.505" cy="334.822" r="2.062"/>
</g>
<g>
	<circle fill="#FFFFFF" stroke="#000000" stroke-width="2" cx="255.565" cy="335.104" r="22.141"/>
	<circle fill="#FFFFFF" stroke="#000000" stroke-width="2" cx="243.583" cy="330.97" r="2.062"/>
	<circle fill="#FFFFFF" stroke="#000000" stroke-width="2" cx="255.738" cy="325.11" r="2.062"/>
	<circle fill="#FFFFFF" stroke="#000000" stroke-width="2" cx="268.434" cy="325.11" r="2.063"/>
	<circle fill="#FFFFFF" stroke="#000000" stroke-width="2" cx="266.155" cy="339.218" r="2.062"/>
	<circle fill="#FFFFFF" stroke="#000000" stroke-width="2" cx="260.187" cy="350.07" r="2.062"/>
	<circle fill="#FFFFFF" stroke="#000000" stroke-width="2" cx="251.505" cy="337.156" r="2.062"/>
</g>
<g>
	<circle fill="#FFFFFF" stroke="#000000" stroke-width="2" cx="297.565" cy="390.771" r="22.141"/>
	<circle fill="#FFFFFF" stroke="#000000" stroke-width="2" cx="285.583" cy="386.637" r="2.062"/>
	<circle fill="#FFFFFF" stroke="#000000" stroke-width="2" cx="297.738" cy="380.777" r="2.062"/>
	<circle fill="#FFFFFF" stroke="#000000" stroke-width="2" cx="310.434" cy="380.777" r="2.063"/>
	<circle fill="#FFFFFF" stroke="#000000" stroke-width="2" cx="308.155" cy="394.885" r="2.062"/>
	<circle fill="#FFFFFF" stroke="#000000" stroke-width="2" cx="302.187" cy="405.737" r="2.062"/>
	<circle fill="#FFFFFF" stroke="#000000" stroke-width="2" cx="293.505" cy="392.823" r="2.062"/>
</g>
<circle fill="#FFFFFF" stroke="#000000" stroke-width="2" cx="401.065" cy="413.771" r="22.141"/>
<ellipse transform="matrix(0.9926 -0.1217 0.1217 0.9926 -48.3641 45.1708)" fill="#9A120D" stroke="#000000" stroke-width="2" cx="345.478" cy="418.378" rx="5.503" ry="14.136"/>
<ellipse transform="matrix(0.9929 -0.1193 0.1193 0.9929 -47.7157 42.4562)" fill="#9A120D" stroke="#000000" stroke-width="2" cx="330.867" cy="419.896" rx="5.503" ry="14.136"/>
<ellipse transform="matrix(0.9999 -0.0128 0.0128 0.9999 -6.012 4.1599)" fill="#F3068F" stroke="#000000" stroke-width="2" cx="322.533" cy="472.562" rx="5.503" ry="14.136"/>
<ellipse transform="matrix(0.9999 -0.0128 0.0128 0.9999 -6.0132 3.9725)" fill="#F3068F" stroke="#000000" stroke-width="2" cx="307.866" cy="472.562" rx="5.503" ry="14.136"/>
<ellipse transform="matrix(0.9999 -0.0129 0.0129 0.9999 -5.9716 3.4106)" fill="#45AD3C" stroke="#000000" stroke-width="2" cx="261.866" cy="465.437" rx="12.286" ry="11.599"/>
<ellipse transform="matrix(0.9999 -0.0128 0.0128 0.9999 -6.0183 4.5049)" fill="#F3068F" stroke="#000000" stroke-width="2" cx="349.532" cy="473.229" rx="5.503" ry="14.136"/>
<ellipse transform="matrix(0.9999 -0.0128 0.0128 0.9999 -6.0299 4.6967)" fill="#F3068F" stroke="#000000" stroke-width="2" cx="364.532" cy="474.229" rx="5.503" ry="14.136"/>
<ellipse transform="matrix(0.9999 -0.0128 0.0128 0.9999 -6.0402 5.0929)" fill="#F3068F" stroke="#000000" stroke-width="2" cx="395.532" cy="475.229" rx="5.503" ry="14.136"/>
<ellipse transform="matrix(0.9999 -0.0128 0.0128 0.9999 -6.0389 5.2846)" fill="#F3068F" stroke="#000000" stroke-width="2" cx="410.532" cy="475.229" rx="5.503" ry="14.136"/>
<ellipse transform="matrix(0.9648 0.2629 -0.2629 0.9648 115.3093 -53.4154)" fill="#9A120D" stroke="#000000" stroke-width="2" cx="257.241" cy="404.146" rx="5.503" ry="14.136"/>
<ellipse transform="matrix(0.9648 0.2629 -0.2629 0.9648 113.8108 -49.807)" fill="#9A120D" stroke="#000000" stroke-width="2" cx="243.009" cy="400.351" rx="5.503" ry="14.136"/>
<ellipse transform="matrix(0.9969 -0.0783 0.0783 0.9969 -32.1369 32.9589)" fill="#FFFFFF" cx="404.292" cy="426.355" rx="34.728" ry="11.023"/>
<circle fill="#FFFFFF" stroke="#000000" stroke-width="2" cx="391.387" cy="413.891" r="2.062"/>
<circle fill="#FFFFFF" stroke="#000000" stroke-width="2" cx="408.888" cy="424.829" r="2.062"/>
<circle fill="#FFFFFF" stroke="#000000" stroke-width="2" cx="374.018" cy="439.391" r="2.062"/>
<circle fill="#FFFFFF" stroke="#000000" stroke-width="2" cx="363.825" cy="439.391" r="2.062"/>
<circle fill="#FFFFFF" stroke="#000000" stroke-width="2" cx="353.533" cy="457.798" r="2.062"/>
<circle fill="#FFFFFF" stroke="#000000" stroke-width="2" cx="326.2" cy="457.465" r="2.062"/>
<circle fill="#FFFFFF" stroke="#000000" stroke-width="2" cx="416.375" cy="455.72" r="2.062"/>
<circle fill="#FFFFFF" stroke="#000000" stroke-width="2" cx="390.248" cy="461.757" r="2.062"/>
<circle fill="#FFFFFF" stroke="#000000" stroke-width="2" cx="391.387" cy="439.329" r="2.063"/>
<circle fill="#FFFFFF" stroke="#000000" stroke-width="2" cx="418.887" cy="446.391" r="2.062"/>
<circle fill="#FFFFFF" stroke="#000000" stroke-width="2" cx="391.387" cy="439.329" r="2.062"/>
<circle fill="#FFFFFF" stroke="#000000" stroke-width="2" cx="384.757" cy="447.246" r="2.062"/>
<circle fill="#FFFFFF" stroke="#000000" stroke-width="2" cx="372.98" cy="459.616" r="2.062"/>
<polygon points="290.578,474 260.966,445.706 266.208,443.401 252.509,439.426 257.129,452.211 259.527,447.098 289.197,475.447 "/>
<polygon points="237.009,460.873 266.621,489.167 261.379,491.472 275.078,495.447 270.458,482.662 268.06,487.775 238.39,459.426 
	"/>
<ellipse transform="matrix(0.9999 -0.0129 0.0129 0.9999 -5.0882 5.988)" fill="#45AD3C" stroke="#000000" stroke-width="2" cx="462.448" cy="398.117" rx="12.286" ry="11.599"/>
<polygon points="491.161,406.68 461.548,378.385 466.791,376.081 453.091,372.106 457.711,384.891 460.11,379.778 489.78,408.126 
	"/>
<polygon points="437.591,393.552 467.204,421.847 461.961,424.152 475.661,428.126 471.041,415.341 468.642,420.455 
	438.973,392.106 "/>
<path fill="#0000FF" d="M319.74,183.205c-0.976-0.976-2.559-0.976-3.535,0l-8.296,8.295v-63.945c0-1.38-1.12-2.501-2.501-2.501
	c-1.38,0-2.5,1.121-2.5,2.501v63.942l-8.044-8.043c-0.978-0.976-2.56-0.976-3.536,0s-0.976,2.56,0,3.536l14.08,14.08l14.333-14.33
	C320.716,185.763,320.716,184.181,319.74,183.205z"/>
<path fill="none" stroke="#1263AE" stroke-width="7" stroke-linecap="round" d="M318.473,494.99c0,0-27.148-2.777-37.591,6.143
	c-11.793,10.073-20.638,34.151-20.638,34.151"/>
<path fill="none" stroke="#1263AE" stroke-width="6.5" stroke-linecap="round" d="M345.254,484.179c0,0,10.074,18.429,15.725,24.57
	s14.987,17.198,22.604,20.638s14.742,5.896,14.742,5.896"/>
<path fill="none" stroke="#1263AE" stroke-width="6.5" stroke-linecap="round" d="M386.775,487.128c0,0-1.474,4.914-1.474,7.371
	s1.229,13.021,13.513,20.146s20.146,10.073,26.535,12.039s15.725,3.44,15.725,3.44"/>
<path fill="none" stroke="#1263AE" stroke-width="5" stroke-linecap="round" d="M421.664,513.91c0,0-52.333,3.193-72.234,6.388
	s-47.173,9.828-47.173,9.828"/>
<path fill="none" stroke="#1263AE" stroke-width="2" stroke-linecap="round" d="M293.657,518.086c0,0,35.134,1.229,45.699,8.845
	s15.479,14.742,16.953,16.953s5.651,7.125,5.651,7.125"/>
<path fill="none" stroke="#1263AE" stroke-width="2" stroke-linecap="round" d="M370.805,518.332c0,0-24.57,8.845-37.346,14.496
	s-33.906,16.462-33.906,16.462"/>
<line fill="none" stroke="#FF0000" x1="162.264" y1="188.967" x2="309.457" y2="282.492"/>
<polyline fill="none" stroke="#FF0000" points="459.387,349.391 498.387,373.391 393.449,413.891 "/>
<line fill="none" stroke="#FF0000" x1="416.387" y1="464.391" x2="538.887" y2="456.391"/>
<line fill="none" stroke="#FF0000" x1="311.887" y1="164.391" x2="413.887" y2="99.391"/>
<g>
	<path d="M426.539,108.447V89.228h2.543v7.892h9.99v-7.892h2.543v19.219h-2.543v-9.059h-9.99v9.059H426.539z"/>
	<path d="M455.079,103.964l2.438,0.301c-0.385,1.425-1.097,2.53-2.137,3.317s-2.369,1.18-3.985,1.18
		c-2.037,0-3.651-0.627-4.845-1.881c-1.192-1.254-1.789-3.013-1.789-5.277c0-2.342,0.603-4.16,1.809-5.454
		c1.207-1.293,2.771-1.94,4.693-1.94c1.862,0,3.383,0.634,4.563,1.901s1.771,3.05,1.771,5.349c0,0.14-0.005,0.35-0.014,0.629H447.2
		c0.087,1.53,0.52,2.701,1.298,3.514c0.777,0.813,1.748,1.219,2.91,1.219c0.865,0,1.604-0.228,2.216-0.682
		C454.235,105.686,454.72,104.96,455.079,103.964z M447.331,100.148h7.774c-0.105-1.171-0.402-2.049-0.892-2.635
		c-0.752-0.909-1.727-1.364-2.924-1.364c-1.084,0-1.995,0.363-2.733,1.088S447.41,98.934,447.331,100.148z"/>
	<path d="M460.48,113.783V94.524h2.15v1.809c0.507-0.708,1.079-1.239,1.718-1.593c0.638-0.354,1.411-0.531,2.32-0.531
		c1.188,0,2.237,0.306,3.146,0.917c0.908,0.612,1.595,1.475,2.058,2.589c0.464,1.114,0.695,2.336,0.695,3.664
		c0,1.425-0.256,2.708-0.768,3.848c-0.511,1.14-1.254,2.014-2.229,2.622s-1.999,0.911-3.074,0.911c-0.786,0-1.492-0.166-2.117-0.498
		s-1.139-0.751-1.54-1.258v6.778H460.48z M462.618,101.564c0,1.792,0.362,3.116,1.088,3.972c0.726,0.857,1.604,1.285,2.635,1.285
		c1.049,0,1.947-0.444,2.694-1.331c0.747-0.887,1.121-2.262,1.121-4.124c0-1.774-0.365-3.103-1.095-3.985
		c-0.73-0.882-1.602-1.324-2.615-1.324c-1.006,0-1.895,0.47-2.668,1.409S462.618,99.773,462.618,101.564z"/>
	<path d="M475.425,94.524h5.44c1.337,0,2.331,0.111,2.982,0.334c0.651,0.223,1.211,0.631,1.678,1.226
		c0.468,0.595,0.702,1.307,0.702,2.137c0,0.664-0.138,1.243-0.413,1.737c-0.275,0.494-0.688,0.907-1.239,1.239
		c0.655,0.219,1.199,0.627,1.632,1.226s0.649,1.309,0.649,2.13c-0.088,1.32-0.56,2.299-1.416,2.937
		c-0.856,0.638-2.102,0.957-3.736,0.957h-6.279V94.524z M477.785,100.385h2.518c1.005,0,1.695-0.053,2.071-0.157
		c0.375-0.105,0.712-0.317,1.009-0.636c0.298-0.319,0.446-0.701,0.446-1.147c0-0.734-0.26-1.246-0.78-1.534
		c-0.52-0.289-1.409-0.433-2.668-0.433h-2.596V100.385z M477.785,106.507h3.107c1.337,0,2.255-0.155,2.753-0.465
		c0.498-0.31,0.761-0.846,0.786-1.606c0-0.446-0.144-0.858-0.433-1.239c-0.288-0.38-0.664-0.621-1.127-0.721
		c-0.464-0.1-1.206-0.151-2.229-0.151h-2.858V106.507z"/>
	<path d="M489.689,94.524h2.359v5.795h6.542v-5.795h2.359v13.923h-2.359v-6.175h-6.542v6.175h-2.359V94.524z"/>
	<path d="M504.555,94.524h2.359v5.441h2.989c1.949,0,3.45,0.378,4.504,1.134c1.053,0.756,1.579,1.798,1.579,3.127
		c0,1.162-0.438,2.156-1.317,2.982c-0.878,0.826-2.283,1.239-4.215,1.239h-5.899V94.524z M506.915,106.507h2.479
		c1.494,0,2.561-0.184,3.198-0.55c0.638-0.367,0.957-0.939,0.957-1.718c0-0.603-0.235-1.14-0.708-1.612
		c-0.472-0.472-1.516-0.708-3.133-0.708h-2.793V106.507z M517.757,94.524h2.359v13.923h-2.359V94.524z"/>
	<path d="M523.8,94.524h2.36v10.619l6.542-10.619h2.543v13.923h-2.359V97.894l-6.542,10.554H523.8V94.524z M531.995,89.254h1.612
		c-0.131,1.093-0.531,1.932-1.199,2.517c-0.669,0.585-1.559,0.878-2.668,0.878c-1.119,0-2.013-0.291-2.682-0.872
		c-0.668-0.581-1.068-1.422-1.199-2.523h1.612c0.122,0.594,0.365,1.038,0.728,1.331c0.363,0.293,0.851,0.439,1.462,0.439
		c0.708,0,1.243-0.142,1.606-0.426C531.629,90.314,531.872,89.866,531.995,89.254z"/>
	<path d="M546.258,94.524h2.36v10.619l6.542-10.619h2.543v13.923h-2.359V97.894l-6.542,10.554h-2.544V94.524z"/>
	<path d="M561.321,94.524h3.671l3.658,11.144l4.063-11.144h3.396v13.923h-2.359V97.238l-4.116,11.209h-2.111l-3.894-11.747v11.747
		h-2.308V94.524z"/>
	<path d="M579.728,94.524h10.986v13.923h-2.36V96.478h-6.267v11.969h-2.359V94.524z"/>
	<path d="M594.149,113.809l-0.263-2.215c0.516,0.14,0.966,0.209,1.351,0.209c0.524,0,0.944-0.087,1.259-0.262
		s0.572-0.419,0.773-0.734c0.148-0.236,0.389-0.822,0.721-1.757c0.044-0.131,0.114-0.323,0.21-0.577l-5.283-13.949h2.543
		l2.897,8.063c0.376,1.023,0.713,2.098,1.01,3.225c0.271-1.083,0.594-2.141,0.97-3.172l2.977-8.115h2.359l-5.296,14.159
		c-0.568,1.529-1.01,2.583-1.324,3.16c-0.42,0.778-0.9,1.348-1.442,1.711c-0.542,0.362-1.188,0.544-1.94,0.544
		C595.215,114.098,594.708,114.001,594.149,113.809z"/>
	<path d="M608.243,94.524h10.96v13.923h-2.347V96.478h-6.254v6.935c0,1.617-0.053,2.683-0.157,3.199s-0.394,0.966-0.865,1.351
		c-0.472,0.384-1.153,0.577-2.045,0.577c-0.551,0-1.185-0.035-1.901-0.105v-1.966h1.036c0.489,0,0.839-0.05,1.049-0.151
		c0.209-0.101,0.35-0.26,0.419-0.479c0.07-0.218,0.105-0.931,0.105-2.137V94.524z"/>
	<path d="M622.715,94.524h2.359v5.441h2.989c1.949,0,3.45,0.378,4.504,1.134c1.053,0.756,1.579,1.798,1.579,3.127
		c0,1.162-0.438,2.156-1.317,2.982c-0.878,0.826-2.283,1.239-4.215,1.239h-5.899V94.524z M625.075,106.507h2.479
		c1.494,0,2.561-0.184,3.198-0.55c0.639-0.367,0.957-0.939,0.957-1.718c0-0.603-0.235-1.14-0.708-1.612
		c-0.472-0.472-1.516-0.708-3.133-0.708h-2.793V106.507z"/>
	<path d="M645.829,103.348l2.32,0.301c-0.254,1.6-0.902,2.852-1.947,3.756c-1.044,0.905-2.327,1.357-3.848,1.357
		c-1.905,0-3.438-0.623-4.595-1.868c-1.158-1.245-1.737-3.03-1.737-5.355c0-1.503,0.249-2.818,0.747-3.946s1.257-1.973,2.274-2.537
		c1.019-0.564,2.126-0.846,3.323-0.846c1.513,0,2.749,0.382,3.711,1.147c0.961,0.765,1.577,1.851,1.848,3.258l-2.294,0.354
		c-0.219-0.935-0.605-1.639-1.16-2.111c-0.555-0.472-1.226-0.708-2.013-0.708c-1.188,0-2.154,0.426-2.896,1.278
		c-0.743,0.852-1.114,2.201-1.114,4.044c0,1.871,0.357,3.229,1.074,4.077c0.717,0.848,1.652,1.272,2.806,1.272
		c0.927,0,1.7-0.284,2.32-0.852C645.269,105.401,645.662,104.527,645.829,103.348z"/>
</g>
<g>
	<path d="M502.796,373.492v-17.706h2.344v7.271h9.203v-7.271h2.343v17.706h-2.343v-8.346h-9.203v8.346H502.796z"/>
	<path d="M529.089,369.361l2.246,0.278c-0.354,1.313-1.011,2.331-1.969,3.056s-2.182,1.087-3.672,1.087
		c-1.876,0-3.363-0.578-4.462-1.733c-1.1-1.155-1.648-2.775-1.648-4.861c0-2.157,0.555-3.832,1.666-5.024
		c1.111-1.191,2.553-1.787,4.324-1.787c1.715,0,3.116,0.584,4.203,1.751c1.087,1.168,1.63,2.811,1.63,4.928
		c0,0.129-0.004,0.322-0.012,0.58h-9.565c0.08,1.409,0.479,2.487,1.195,3.236s1.61,1.123,2.682,1.123
		c0.797,0,1.478-0.209,2.041-0.628C528.312,370.948,528.759,370.279,529.089,369.361z M521.952,365.846h7.161
		c-0.096-1.078-0.37-1.888-0.821-2.427c-0.692-0.838-1.59-1.257-2.692-1.257c-0.999,0-1.838,0.335-2.519,1.003
		S522.024,364.728,521.952,365.846z"/>
	<path d="M534.066,360.666h2.174v9.782l6.026-9.782h2.343v12.826h-2.174v-9.723l-6.026,9.723h-2.343V360.666z M541.614,355.81h1.485
		c-0.12,1.007-0.488,1.779-1.104,2.319c-0.616,0.539-1.436,0.809-2.458,0.809c-1.03,0-1.854-0.268-2.47-0.803
		s-0.984-1.311-1.105-2.325h1.485c0.113,0.548,0.337,0.956,0.671,1.226c0.334,0.271,0.783,0.405,1.347,0.405
		c0.652,0,1.146-0.131,1.479-0.393S541.501,356.374,541.614,355.81z"/>
	<path d="M547.882,378.408v-17.742h1.98v1.667c0.467-0.652,0.994-1.142,1.582-1.468s1.3-0.489,2.138-0.489
		c1.095,0,2.062,0.282,2.898,0.846c0.838,0.563,1.47,1.358,1.896,2.385s0.64,2.152,0.64,3.376c0,1.313-0.235,2.494-0.706,3.545
		s-1.155,1.855-2.054,2.415c-0.897,0.56-1.842,0.84-2.832,0.84c-0.725,0-1.375-0.153-1.95-0.459
		c-0.576-0.306-1.049-0.692-1.419-1.159v6.244H547.882z M549.85,367.151c0,1.65,0.335,2.87,1.003,3.659
		c0.668,0.79,1.478,1.184,2.428,1.184c0.966,0,1.793-0.408,2.481-1.226s1.033-2.083,1.033-3.798c0-1.635-0.337-2.858-1.009-3.672
		s-1.476-1.22-2.409-1.22c-0.926,0-1.745,0.433-2.458,1.298C550.207,364.243,549.85,365.5,549.85,367.151z"/>
	<path d="M560.83,367.079c0-2.375,0.66-4.135,1.98-5.278c1.104-0.949,2.448-1.425,4.034-1.425c1.764,0,3.204,0.578,4.323,1.733
		s1.68,2.752,1.68,4.788c0,1.651-0.248,2.949-0.743,3.896s-1.216,1.681-2.162,2.204s-1.979,0.785-3.098,0.785
		c-1.796,0-3.247-0.576-4.354-1.728C561.383,370.903,560.83,369.245,560.83,367.079z M563.064,367.079
		c0,1.643,0.358,2.872,1.075,3.689c0.716,0.817,1.618,1.226,2.705,1.226c1.079,0,1.977-0.41,2.693-1.231s1.075-2.073,1.075-3.756
		c0-1.586-0.36-2.788-1.081-3.605s-1.617-1.226-2.688-1.226c-1.087,0-1.989,0.406-2.705,1.22
		C563.422,364.208,563.064,365.436,563.064,367.079z"/>
	<path d="M575.455,360.666h3.382l3.37,10.266l3.744-10.266h3.128v12.826h-2.174v-10.326l-3.793,10.326h-1.944l-3.587-10.821v10.821
		h-2.126V360.666z"/>
	<path d="M601.18,369.361l2.246,0.278c-0.354,1.313-1.011,2.331-1.969,3.056s-2.182,1.087-3.672,1.087
		c-1.876,0-3.363-0.578-4.462-1.733c-1.1-1.155-1.648-2.775-1.648-4.861c0-2.157,0.555-3.832,1.666-5.024
		c1.111-1.191,2.553-1.787,4.324-1.787c1.715,0,3.116,0.584,4.203,1.751c1.087,1.168,1.63,2.811,1.63,4.928
		c0,0.129-0.004,0.322-0.012,0.58h-9.565c0.08,1.409,0.479,2.487,1.195,3.236s1.61,1.123,2.682,1.123
		c0.797,0,1.478-0.209,2.041-0.628C600.403,370.948,600.85,370.279,601.18,369.361z M594.042,365.846h7.161
		c-0.096-1.078-0.37-1.888-0.821-2.427c-0.692-0.838-1.59-1.257-2.692-1.257c-0.999,0-1.838,0.335-2.519,1.003
		S594.115,364.728,594.042,365.846z"/>
	<path d="M607.328,360.666h8.938v11.039h1.389v5.423h-1.787v-3.636h-10.098v3.636h-1.787v-5.423h1.147
		C606.659,369.626,607.392,365.948,607.328,360.666z M609.139,362.465c-0.161,4.162-0.806,7.242-1.933,9.239h6.896v-9.239H609.139z"
		/>
	<path d="M620.045,360.666h2.174v9.782l6.026-9.782h2.343v12.826h-2.174v-9.723l-6.026,9.723h-2.343V360.666z"/>
	<path d="M642.232,371.91c-0.805,0.685-1.58,1.167-2.325,1.449c-0.744,0.281-1.544,0.423-2.396,0.423
		c-1.409,0-2.492-0.345-3.249-1.033s-1.136-1.567-1.136-2.639c0-0.628,0.143-1.201,0.429-1.721s0.66-0.937,1.123-1.25
		c0.463-0.314,0.984-0.552,1.564-0.713c0.427-0.112,1.07-0.222,1.933-0.326c1.755-0.209,3.047-0.459,3.877-0.749
		c0.008-0.298,0.012-0.486,0.012-0.567c0-0.886-0.205-1.51-0.616-1.872c-0.556-0.491-1.381-0.736-2.476-0.736
		c-1.022,0-1.777,0.179-2.265,0.537s-0.848,0.992-1.081,1.902l-2.125-0.29c0.192-0.909,0.511-1.645,0.954-2.204
		c0.442-0.56,1.082-0.99,1.92-1.292c0.837-0.302,1.808-0.453,2.911-0.453c1.095,0,1.984,0.129,2.669,0.387
		c0.684,0.258,1.188,0.582,1.51,0.972c0.321,0.391,0.547,0.884,0.676,1.479c0.072,0.371,0.109,1.039,0.109,2.005v2.898
		c0,2.021,0.046,3.3,0.139,3.835c0.092,0.536,0.275,1.049,0.55,1.54h-2.271C642.442,373.041,642.296,372.513,642.232,371.91z
		 M642.051,367.054c-0.789,0.322-1.973,0.596-3.551,0.821c-0.894,0.129-1.526,0.274-1.896,0.435
		c-0.37,0.161-0.656,0.397-0.857,0.707s-0.302,0.654-0.302,1.032c0,0.58,0.219,1.063,0.658,1.449c0.438,0.387,1.081,0.58,1.926,0.58
		c0.838,0,1.582-0.183,2.234-0.55c0.652-0.366,1.132-0.867,1.438-1.503c0.233-0.491,0.351-1.216,0.351-2.175V367.054z"/>
	<path d="M645.904,360.666h10.423v1.8h-4.131v11.026h-2.161v-11.026h-4.131V360.666z"/>
	<path d="M657.317,367.079c0-2.375,0.66-4.135,1.98-5.278c1.104-0.949,2.448-1.425,4.034-1.425c1.764,0,3.204,0.578,4.323,1.733
		s1.68,2.752,1.68,4.788c0,1.651-0.248,2.949-0.743,3.896s-1.216,1.681-2.162,2.204s-1.979,0.785-3.098,0.785
		c-1.796,0-3.247-0.576-4.354-1.728C657.871,370.903,657.317,369.245,657.317,367.079z M659.551,367.079
		c0,1.643,0.358,2.872,1.075,3.689c0.716,0.817,1.618,1.226,2.705,1.226c1.079,0,1.977-0.41,2.693-1.231s1.075-2.073,1.075-3.756
		c0-1.586-0.36-2.788-1.081-3.605s-1.617-1.226-2.688-1.226c-1.087,0-1.989,0.406-2.705,1.22
		C659.91,364.208,659.551,365.436,659.551,367.079z"/>
	<path d="M671.882,378.408v-17.742h1.98v1.667c0.467-0.652,0.994-1.142,1.582-1.468s1.3-0.489,2.138-0.489
		c1.095,0,2.062,0.282,2.898,0.846c0.838,0.563,1.47,1.358,1.896,2.385s0.64,2.152,0.64,3.376c0,1.313-0.235,2.494-0.706,3.545
		s-1.155,1.855-2.054,2.415c-0.897,0.56-1.842,0.84-2.832,0.84c-0.725,0-1.375-0.153-1.95-0.459
		c-0.576-0.306-1.049-0.692-1.419-1.159v6.244H671.882z M673.85,367.151c0,1.65,0.335,2.87,1.003,3.659
		c0.668,0.79,1.478,1.184,2.428,1.184c0.966,0,1.793-0.408,2.481-1.226s1.033-2.083,1.033-3.798c0-1.635-0.337-2.858-1.009-3.672
		s-1.476-1.22-2.409-1.22c-0.926,0-1.745,0.433-2.458,1.298C674.207,364.243,673.85,365.5,673.85,367.151z"/>
	<path d="M685.687,360.666h2.174v5.012h2.754c1.795,0,3.179,0.349,4.148,1.045c0.971,0.696,1.455,1.657,1.455,2.881
		c0,1.07-0.404,1.986-1.213,2.747c-0.81,0.761-2.104,1.142-3.884,1.142h-5.435V360.666z M687.861,371.705h2.283
		c1.377,0,2.358-0.17,2.946-0.508s0.882-0.865,0.882-1.582c0-0.556-0.217-1.051-0.652-1.485c-0.435-0.435-1.396-0.652-2.887-0.652
		h-2.572V371.705z M697.849,360.666h2.174v12.826h-2.174V360.666z"/>
</g>
<g>
	<path d="M545.946,465.651v-17.706h6.679c1.176,0,2.073,0.057,2.693,0.17c0.87,0.145,1.599,0.42,2.187,0.827
		c0.587,0.406,1.061,0.977,1.419,1.709s0.537,1.538,0.537,2.415c0,1.506-0.479,2.78-1.438,3.822
		c-0.958,1.043-2.688,1.564-5.193,1.564h-4.541v7.198H545.946z M548.289,456.363h4.578c1.514,0,2.588-0.281,3.225-0.845
		c0.636-0.563,0.954-1.356,0.954-2.38c0-0.74-0.188-1.374-0.562-1.902c-0.375-0.526-0.868-0.875-1.479-1.044
		c-0.395-0.104-1.124-0.157-2.187-0.157h-4.529V456.363z"/>
	<path d="M569.86,461.52l2.246,0.278c-0.354,1.313-1.011,2.331-1.969,3.056s-2.182,1.087-3.672,1.087
		c-1.876,0-3.363-0.578-4.462-1.733c-1.1-1.155-1.648-2.775-1.648-4.861c0-2.157,0.555-3.832,1.666-5.024
		c1.111-1.191,2.553-1.787,4.324-1.787c1.715,0,3.116,0.584,4.203,1.751c1.087,1.168,1.63,2.811,1.63,4.928
		c0,0.129-0.004,0.322-0.012,0.58h-9.565c0.08,1.409,0.479,2.487,1.195,3.236s1.61,1.123,2.682,1.123
		c0.797,0,1.478-0.209,2.041-0.628C569.083,463.107,569.53,462.438,569.86,461.52z M562.722,458.005h7.161
		c-0.096-1.078-0.37-1.888-0.821-2.427c-0.692-0.838-1.59-1.257-2.692-1.257c-0.999,0-1.838,0.335-2.519,1.003
		S562.794,456.887,562.722,458.005z"/>
	<path d="M574.872,452.825h2.174v11.039h6.015v-11.039h2.174v11.039h1.401v5.423h-1.788v-3.636h-9.976V452.825z"/>
	<path d="M597.505,461.52l2.246,0.278c-0.354,1.313-1.011,2.331-1.969,3.056s-2.182,1.087-3.672,1.087
		c-1.876,0-3.363-0.578-4.462-1.733c-1.1-1.155-1.648-2.775-1.648-4.861c0-2.157,0.555-3.832,1.666-5.024
		c1.111-1.191,2.553-1.787,4.324-1.787c1.715,0,3.116,0.584,4.203,1.751c1.087,1.168,1.63,2.811,1.63,4.928
		c0,0.129-0.004,0.322-0.012,0.58h-9.565c0.08,1.409,0.479,2.487,1.195,3.236s1.61,1.123,2.682,1.123
		c0.797,0,1.478-0.209,2.041-0.628C596.728,463.107,597.175,462.438,597.505,461.52z M590.368,458.005h7.161
		c-0.096-1.078-0.37-1.888-0.821-2.427c-0.692-0.838-1.59-1.257-2.692-1.257c-0.999,0-1.838,0.335-2.519,1.003
		S590.44,456.887,590.368,458.005z"/>
	<path d="M602.493,452.825h10.121v12.826h-2.174v-11.026h-5.773v11.026h-2.174V452.825z"/>
	<path d="M614.704,452.825h10.423v1.8h-4.131v11.026h-2.161v-11.026h-4.131V452.825z"/>
	<path d="M626.117,459.238c0-2.375,0.66-4.135,1.98-5.278c1.104-0.949,2.448-1.425,4.034-1.425c1.764,0,3.204,0.578,4.323,1.733
		s1.68,2.752,1.68,4.788c0,1.651-0.248,2.949-0.743,3.896s-1.216,1.681-2.162,2.204s-1.979,0.785-3.098,0.785
		c-1.796,0-3.247-0.576-4.354-1.728C626.67,463.062,626.117,461.404,626.117,459.238z M628.351,459.238
		c0,1.643,0.358,2.872,1.075,3.689c0.716,0.817,1.618,1.226,2.705,1.226c1.079,0,1.977-0.41,2.693-1.231s1.075-2.073,1.075-3.756
		c0-1.586-0.36-2.788-1.081-3.605s-1.617-1.226-2.688-1.226c-1.087,0-1.989,0.406-2.705,1.22
		C628.709,456.368,628.351,457.595,628.351,459.238z"/>
	<path d="M640.682,470.567v-17.742h1.98v1.667c0.467-0.652,0.994-1.142,1.582-1.468s1.3-0.489,2.138-0.489
		c1.095,0,2.062,0.282,2.898,0.846c0.838,0.563,1.47,1.358,1.896,2.385s0.64,2.152,0.64,3.376c0,1.313-0.235,2.494-0.706,3.545
		s-1.155,1.855-2.054,2.415c-0.897,0.56-1.842,0.84-2.832,0.84c-0.725,0-1.375-0.153-1.95-0.459
		c-0.576-0.306-1.049-0.692-1.419-1.159v6.244H640.682z M642.65,459.31c0,1.65,0.335,2.87,1.003,3.659
		c0.668,0.79,1.478,1.184,2.428,1.184c0.966,0,1.793-0.408,2.481-1.226s1.033-2.083,1.033-3.798c0-1.635-0.337-2.858-1.009-3.672
		s-1.476-1.22-2.409-1.22c-0.926,0-1.745,0.433-2.458,1.298C643.006,456.402,642.65,457.66,642.65,459.31z"/>
	<path d="M654.487,452.825h2.174v5.012h2.754c1.795,0,3.179,0.349,4.148,1.045c0.971,0.696,1.455,1.657,1.455,2.881
		c0,1.07-0.404,1.986-1.213,2.747c-0.81,0.761-2.104,1.142-3.884,1.142h-5.435V452.825z M656.661,463.864h2.283
		c1.377,0,2.358-0.17,2.946-0.508s0.882-0.865,0.882-1.582c0-0.556-0.217-1.051-0.652-1.485c-0.435-0.435-1.396-0.652-2.887-0.652
		h-2.572V463.864z M666.649,452.825h2.174v12.826h-2.174V452.825z"/>
</g>
<g>
	<path d="M752.178,484.526v-13.328H747.2v-1.783h11.978v1.783h-4.999v13.328H752.178z"/>
	<path d="M767.3,481l1.917,0.237c-0.303,1.12-0.862,1.989-1.681,2.607c-0.817,0.619-1.862,0.928-3.133,0.928
		c-1.602,0-2.871-0.493-3.81-1.479c-0.938-0.986-1.406-2.369-1.406-4.149c0-1.842,0.474-3.271,1.422-4.288
		c0.948-1.017,2.179-1.525,3.69-1.525c1.464,0,2.659,0.498,3.587,1.494c0.928,0.997,1.392,2.398,1.392,4.206
		c0,0.11-0.003,0.275-0.01,0.495h-8.164c0.068,1.202,0.409,2.123,1.021,2.763c0.611,0.639,1.374,0.958,2.288,0.958
		c0.681,0,1.261-0.179,1.742-0.536C766.636,482.354,767.018,481.784,767.3,481z M761.208,478.001h6.113
		c-0.083-0.921-0.316-1.612-0.701-2.072c-0.591-0.715-1.357-1.072-2.299-1.072c-0.852,0-1.568,0.285-2.149,0.855
		C761.591,476.283,761.27,477.046,761.208,478.001z"/>
	<path d="M771.752,473.579h8.617v10.947h-1.845v-9.411h-4.917v5.453c0,1.271-0.041,2.109-0.124,2.515
		c-0.082,0.406-0.31,0.76-0.681,1.062c-0.371,0.303-0.906,0.454-1.607,0.454c-0.433,0-0.932-0.027-1.495-0.083v-1.546h0.814
		c0.385,0,0.66-0.039,0.825-0.118c0.164-0.079,0.274-0.205,0.329-0.376c0.056-0.172,0.083-0.732,0.083-1.681V473.579z"/>
	<path d="M782.71,479.052c0-2.027,0.563-3.528,1.69-4.504c0.941-0.812,2.089-1.217,3.442-1.217c1.505,0,2.735,0.493,3.69,1.479
		s1.433,2.349,1.433,4.087c0,1.408-0.211,2.517-0.634,3.324s-1.038,1.435-1.845,1.881c-0.808,0.447-1.689,0.67-2.645,0.67
		c-1.532,0-2.771-0.491-3.716-1.474S782.71,480.901,782.71,479.052z M784.617,479.052c0,1.402,0.307,2.452,0.918,3.149
		s1.381,1.046,2.309,1.046c0.921,0,1.688-0.351,2.299-1.051c0.611-0.701,0.918-1.77,0.918-3.206c0-1.354-0.308-2.38-0.923-3.077
		s-1.38-1.046-2.294-1.046c-0.928,0-1.697,0.347-2.309,1.041S784.617,477.651,784.617,479.052z"/>
	<path d="M748.107,498.912h1.854v4.557h5.145v-4.557h1.854v10.947h-1.854v-4.855h-5.145v4.855h-1.854V498.912z"/>
	<path d="M767.249,506.333l1.917,0.237c-0.303,1.12-0.862,1.989-1.681,2.607c-0.817,0.619-1.862,0.928-3.133,0.928
		c-1.602,0-2.871-0.493-3.81-1.479c-0.938-0.986-1.406-2.369-1.406-4.149c0-1.842,0.474-3.271,1.422-4.288
		c0.948-1.017,2.179-1.525,3.69-1.525c1.464,0,2.659,0.498,3.587,1.494c0.928,0.997,1.392,2.398,1.392,4.206
		c0,0.11-0.003,0.275-0.01,0.495h-8.164c0.068,1.202,0.409,2.123,1.021,2.763c0.611,0.639,1.374,0.958,2.288,0.958
		c0.681,0,1.261-0.179,1.742-0.536C766.584,507.687,766.966,507.117,767.249,506.333z M761.156,503.334h6.113
		c-0.083-0.921-0.316-1.612-0.701-2.072c-0.591-0.715-1.357-1.072-2.299-1.072c-0.852,0-1.568,0.285-2.149,0.855
		C761.54,501.616,761.218,502.379,761.156,503.334z"/>
	<path d="M771.495,514.054v-15.143h1.69v1.423c0.398-0.557,0.849-0.975,1.351-1.253c0.501-0.278,1.109-0.417,1.824-0.417
		c0.935,0,1.759,0.24,2.474,0.722c0.715,0.48,1.254,1.159,1.618,2.036c0.364,0.876,0.547,1.836,0.547,2.881
		c0,1.12-0.201,2.128-0.604,3.025c-0.401,0.896-0.985,1.584-1.752,2.062s-1.572,0.716-2.417,0.716c-0.618,0-1.174-0.13-1.665-0.392
		c-0.491-0.261-0.896-0.591-1.211-0.989v5.329H771.495z M773.174,504.447c0,1.409,0.285,2.45,0.856,3.124
		c0.57,0.673,1.261,1.01,2.071,1.01c0.825,0,1.531-0.349,2.118-1.046c0.588-0.697,0.882-1.778,0.882-3.242
		c0-1.395-0.287-2.439-0.861-3.134c-0.573-0.693-1.259-1.041-2.056-1.041c-0.791,0-1.49,0.37-2.098,1.108
		C773.479,501.964,773.174,503.039,773.174,504.447z"/>
	<path d="M783.247,498.912h4.277c1.052,0,1.833,0.088,2.345,0.263c0.512,0.176,0.952,0.497,1.319,0.964
		c0.368,0.468,0.552,1.027,0.552,1.681c0,0.522-0.108,0.978-0.324,1.365c-0.217,0.389-0.542,0.714-0.975,0.975
		c0.516,0.172,0.943,0.493,1.283,0.964c0.341,0.471,0.511,1.029,0.511,1.675c-0.069,1.038-0.44,1.808-1.113,2.309
		c-0.674,0.502-1.653,0.753-2.938,0.753h-4.937V498.912z M785.101,503.52h1.979c0.79,0,1.333-0.042,1.629-0.124
		c0.295-0.083,0.56-0.249,0.794-0.5c0.233-0.251,0.35-0.552,0.35-0.902c0-0.577-0.204-0.979-0.613-1.206
		c-0.408-0.227-1.107-0.34-2.098-0.34h-2.041V503.52z M785.101,508.333h2.443c1.052,0,1.773-0.122,2.165-0.366
		s0.598-0.665,0.618-1.263c0-0.351-0.113-0.675-0.34-0.974c-0.228-0.299-0.522-0.488-0.887-0.567s-0.948-0.118-1.752-0.118h-2.248
		V508.333z"/>
	<path d="M794.461,498.912h1.854v4.557h5.145v-4.557h1.854v10.947h-1.854v-4.855h-5.145v4.855h-1.854V498.912z"/>
	<path d="M805.418,504.385c0-2.027,0.563-3.528,1.69-4.504c0.941-0.812,2.089-1.217,3.442-1.217c1.505,0,2.735,0.493,3.69,1.479
		s1.433,2.349,1.433,4.087c0,1.408-0.211,2.517-0.634,3.324s-1.038,1.435-1.845,1.881c-0.808,0.447-1.689,0.67-2.645,0.67
		c-1.532,0-2.771-0.491-3.716-1.474S805.418,506.234,805.418,504.385z M807.325,504.385c0,1.402,0.307,2.452,0.918,3.149
		s1.381,1.046,2.309,1.046c0.921,0,1.688-0.351,2.299-1.051c0.611-0.701,0.918-1.77,0.918-3.206c0-1.354-0.308-2.38-0.923-3.077
		s-1.38-1.046-2.294-1.046c-0.928,0-1.697,0.347-2.309,1.041S807.325,502.984,807.325,504.385z"/>
	<path d="M817.849,498.912h1.855v8.35l5.144-8.35h2v10.947h-1.855v-8.298l-5.144,8.298h-2V498.912z M824.292,494.768h1.268
		c-0.103,0.859-0.417,1.519-0.943,1.979c-0.525,0.46-1.225,0.69-2.098,0.69c-0.879,0-1.582-0.229-2.107-0.686
		s-0.84-1.118-0.943-1.984h1.268c0.097,0.468,0.287,0.816,0.572,1.046c0.285,0.23,0.669,0.346,1.149,0.346
		c0.557,0,0.978-0.111,1.263-0.335S824.195,495.25,824.292,494.768z"/>
	<path d="M748.085,524.244h1.855v4.731c0.591,0,1.005-0.113,1.242-0.34s0.586-0.887,1.047-1.979
		c0.364-0.865,0.659-1.436,0.886-1.711c0.228-0.274,0.488-0.46,0.784-0.557c0.295-0.096,0.77-0.145,1.422-0.145h0.371v1.536
		l-0.516-0.011c-0.487,0-0.8,0.072-0.938,0.217c-0.145,0.151-0.364,0.602-0.66,1.351c-0.281,0.715-0.539,1.209-0.772,1.484
		c-0.234,0.274-0.595,0.525-1.083,0.752c0.798,0.214,1.581,0.956,2.351,2.227l2.03,3.392h-2.041l-1.979-3.392
		c-0.405-0.68-0.76-1.128-1.062-1.345c-0.303-0.217-0.664-0.325-1.083-0.325v5.062h-1.855V524.244z"/>
	<path d="M758.476,524.244h8.617v10.947h-1.845v-9.411h-4.917v5.453c0,1.271-0.041,2.109-0.124,2.515
		c-0.082,0.406-0.31,0.76-0.681,1.062c-0.371,0.303-0.906,0.454-1.607,0.454c-0.433,0-0.932-0.027-1.495-0.083v-1.546h0.814
		c0.385,0,0.66-0.039,0.825-0.118c0.164-0.079,0.274-0.205,0.329-0.376c0.056-0.172,0.083-0.732,0.083-1.681V524.244z"/>
	<path d="M777.381,531.666l1.917,0.237c-0.303,1.12-0.862,1.989-1.681,2.607c-0.817,0.619-1.862,0.928-3.133,0.928
		c-1.602,0-2.871-0.493-3.81-1.479c-0.938-0.986-1.406-2.369-1.406-4.149c0-1.842,0.474-3.271,1.422-4.288
		c0.948-1.017,2.179-1.525,3.69-1.525c1.464,0,2.659,0.498,3.587,1.494c0.928,0.997,1.392,2.398,1.392,4.206
		c0,0.11-0.003,0.275-0.01,0.495h-8.164c0.068,1.202,0.409,2.123,1.021,2.763c0.611,0.639,1.374,0.958,2.288,0.958
		c0.681,0,1.261-0.179,1.742-0.536C776.717,533.019,777.099,532.449,777.381,531.666z M771.289,528.667h6.113
		c-0.083-0.921-0.316-1.612-0.701-2.072c-0.591-0.715-1.357-1.072-2.299-1.072c-0.852,0-1.568,0.285-2.149,0.855
		C771.672,526.948,771.351,527.711,771.289,528.667z"/>
	<path d="M779.926,524.244h8.896v1.536h-3.525v9.411h-1.845v-9.411h-3.525V524.244z"/>
	<path d="M790.584,524.244h1.855v4.731c0.591,0,1.005-0.113,1.242-0.34s0.586-0.887,1.047-1.979
		c0.364-0.865,0.659-1.436,0.886-1.711c0.228-0.274,0.488-0.46,0.784-0.557c0.295-0.096,0.77-0.145,1.422-0.145h0.371v1.536
		l-0.516-0.011c-0.487,0-0.8,0.072-0.938,0.217c-0.145,0.151-0.364,0.602-0.66,1.351c-0.281,0.715-0.539,1.209-0.772,1.484
		c-0.234,0.274-0.595,0.525-1.083,0.752c0.798,0.214,1.581,0.956,2.351,2.227l2.03,3.392h-2.041l-1.979-3.392
		c-0.405-0.68-0.76-1.128-1.062-1.345c-0.303-0.217-0.664-0.325-1.083-0.325v5.062h-1.855V524.244z"/>
	<path d="M799.832,524.244h1.855v8.35l5.144-8.35h2v10.947h-1.855v-8.298l-5.144,8.298h-2V524.244z"/>
</g>
<g>
	<path d="M733.702,409.895l1.999,0.505c-0.419,1.643-1.173,2.895-2.263,3.757c-1.089,0.862-2.42,1.294-3.994,1.294
		c-1.629,0-2.953-0.332-3.974-0.995s-1.797-1.623-2.329-2.881c-0.533-1.258-0.799-2.607-0.799-4.051c0-1.573,0.3-2.946,0.901-4.118
		s1.457-2.062,2.566-2.67c1.11-0.608,2.332-0.912,3.665-0.912c1.512,0,2.783,0.385,3.813,1.154c1.031,0.77,1.749,1.853,2.154,3.247
		l-1.969,0.464c-0.351-1.1-0.858-1.899-1.525-2.401c-0.666-0.502-1.505-0.753-2.515-0.753c-1.162,0-2.133,0.278-2.912,0.835
		c-0.78,0.557-1.328,1.304-1.645,2.242s-0.474,1.905-0.474,2.901c0,1.285,0.187,2.407,0.562,3.366
		c0.374,0.958,0.957,1.675,1.747,2.148c0.79,0.475,1.646,0.712,2.566,0.712c1.12,0,2.068-0.323,2.846-0.969
		C732.901,412.125,733.426,411.167,733.702,409.895z"/>
	<path d="M737.927,404.246h1.855v8.35l5.144-8.35h2v10.947h-1.855v-8.298l-5.144,8.298h-2V404.246z"/>
	<path d="M749.73,404.246h1.854v4.557h5.145v-4.557h1.854v10.947h-1.854v-4.855h-5.145v4.855h-1.854V404.246z"/>
	<path d="M768.521,413.842c-0.688,0.584-1.349,0.997-1.984,1.237s-1.318,0.36-2.046,0.36c-1.203,0-2.127-0.293-2.773-0.881
		c-0.646-0.588-0.969-1.339-0.969-2.252c0-0.536,0.122-1.026,0.366-1.47c0.243-0.442,0.563-0.799,0.958-1.066
		c0.396-0.269,0.841-0.471,1.335-0.608c0.364-0.096,0.914-0.188,1.649-0.278c1.498-0.179,2.602-0.392,3.309-0.639
		c0.007-0.255,0.011-0.416,0.011-0.484c0-0.756-0.175-1.289-0.525-1.598c-0.475-0.42-1.179-0.629-2.113-0.629
		c-0.873,0-1.518,0.152-1.933,0.458c-0.416,0.307-0.724,0.848-0.923,1.624l-1.814-0.247c0.165-0.777,0.437-1.404,0.814-1.882
		s0.925-0.845,1.639-1.103c0.715-0.258,1.543-0.387,2.484-0.387c0.935,0,1.694,0.11,2.278,0.33s1.014,0.496,1.288,0.829
		c0.275,0.334,0.468,0.755,0.577,1.263c0.063,0.316,0.093,0.887,0.093,1.712v2.474c0,1.725,0.04,2.815,0.119,3.272
		s0.235,0.896,0.469,1.314h-1.938C768.7,414.808,768.576,414.358,768.521,413.842z M768.366,409.699
		c-0.673,0.275-1.684,0.509-3.03,0.701c-0.763,0.109-1.302,0.233-1.618,0.371s-0.561,0.338-0.731,0.603
		c-0.172,0.265-0.258,0.559-0.258,0.882c0,0.494,0.187,0.907,0.562,1.236c0.374,0.33,0.923,0.495,1.645,0.495
		c0.714,0,1.35-0.156,1.906-0.469s0.966-0.74,1.227-1.283c0.199-0.419,0.299-1.038,0.299-1.855V409.699z"/>
	<path d="M773.129,404.246h8.638v10.947h-1.855v-9.411h-4.928v9.411h-1.854V404.246z"/>
	<path d="M783.55,404.246h8.896v1.536h-3.525v9.411h-1.845v-9.411h-3.525V404.246z"/>
	<path d="M794.219,404.246h1.855v8.35l5.144-8.35h2v10.947h-1.855v-8.298l-5.144,8.298h-2V404.246z"/>
	<path d="M805.331,404.246h1.855v2.072c0,0.894,0.054,1.541,0.16,1.943c0.106,0.401,0.362,0.752,0.768,1.051
		s0.914,0.448,1.525,0.448c0.701,0,1.608-0.186,2.722-0.557v-4.958h1.855v10.947h-1.855v-4.412
		c-1.141,0.357-2.206,0.536-3.195,0.536c-0.832,0-1.565-0.211-2.201-0.634s-1.066-0.939-1.293-1.551
		c-0.228-0.612-0.341-1.285-0.341-2.021V404.246z"/>
	<path d="M824.503,411.667l1.917,0.237c-0.303,1.12-0.862,1.989-1.681,2.607c-0.817,0.619-1.862,0.928-3.133,0.928
		c-1.602,0-2.871-0.493-3.81-1.479c-0.938-0.986-1.406-2.369-1.406-4.149c0-1.842,0.474-3.271,1.422-4.288
		c0.948-1.017,2.179-1.525,3.69-1.525c1.464,0,2.659,0.498,3.587,1.494c0.928,0.997,1.392,2.398,1.392,4.206
		c0,0.11-0.003,0.275-0.01,0.495h-8.164c0.068,1.202,0.409,2.123,1.021,2.763c0.611,0.639,1.374,0.958,2.288,0.958
		c0.681,0,1.261-0.179,1.742-0.536C823.839,413.021,824.221,412.451,824.503,411.667z M818.411,408.668h6.113
		c-0.083-0.921-0.316-1.612-0.701-2.072c-0.591-0.715-1.357-1.072-2.299-1.072c-0.852,0-1.568,0.285-2.149,0.855
		C818.794,406.95,818.473,407.713,818.411,408.668z"/>
	<path d="M835.894,411.183l1.824,0.237c-0.199,1.258-0.71,2.242-1.53,2.953c-0.821,0.711-1.83,1.066-3.025,1.066
		c-1.499,0-2.703-0.489-3.613-1.469s-1.366-2.383-1.366-4.211c0-1.182,0.196-2.216,0.588-3.103s0.988-1.551,1.788-1.994
		c0.801-0.443,1.672-0.665,2.613-0.665c1.188,0,2.161,0.301,2.917,0.902c0.756,0.601,1.24,1.455,1.454,2.562l-1.805,0.278
		c-0.172-0.735-0.476-1.289-0.912-1.66s-0.964-0.557-1.582-0.557c-0.935,0-1.694,0.335-2.278,1.005s-0.876,1.73-0.876,3.181
		c0,1.471,0.282,2.539,0.846,3.205c0.563,0.667,1.299,1,2.206,1c0.728,0,1.336-0.223,1.824-0.67
		C835.454,412.798,835.763,412.111,835.894,411.183z"/>
	<path d="M839.294,404.246h1.855v4.731c0.591,0,1.005-0.113,1.242-0.34s0.586-0.887,1.047-1.979
		c0.364-0.865,0.659-1.436,0.886-1.711c0.228-0.274,0.488-0.46,0.784-0.557c0.295-0.096,0.77-0.145,1.422-0.145h0.371v1.536
		l-0.516-0.011c-0.487,0-0.8,0.072-0.938,0.217c-0.145,0.151-0.364,0.602-0.66,1.351c-0.281,0.715-0.539,1.209-0.772,1.484
		c-0.234,0.274-0.595,0.525-1.083,0.752c0.798,0.214,1.581,0.956,2.351,2.227l2.03,3.392h-2.041l-1.979-3.392
		c-0.405-0.68-0.76-1.128-1.062-1.345c-0.303-0.217-0.664-0.325-1.083-0.325v5.062h-1.855V404.246z"/>
	<path d="M856.149,413.842c-0.688,0.584-1.349,0.997-1.984,1.237s-1.318,0.36-2.046,0.36c-1.203,0-2.127-0.293-2.773-0.881
		c-0.646-0.588-0.969-1.339-0.969-2.252c0-0.536,0.122-1.026,0.366-1.47c0.243-0.442,0.563-0.799,0.958-1.066
		c0.396-0.269,0.841-0.471,1.335-0.608c0.364-0.096,0.914-0.188,1.649-0.278c1.498-0.179,2.602-0.392,3.309-0.639
		c0.007-0.255,0.011-0.416,0.011-0.484c0-0.756-0.175-1.289-0.525-1.598c-0.475-0.42-1.179-0.629-2.113-0.629
		c-0.873,0-1.518,0.152-1.933,0.458c-0.416,0.307-0.724,0.848-0.923,1.624l-1.814-0.247c0.165-0.777,0.437-1.404,0.814-1.882
		s0.925-0.845,1.639-1.103c0.715-0.258,1.543-0.387,2.484-0.387c0.935,0,1.694,0.11,2.278,0.33s1.014,0.496,1.288,0.829
		c0.275,0.334,0.468,0.755,0.577,1.263c0.063,0.316,0.093,0.887,0.093,1.712v2.474c0,1.725,0.04,2.815,0.119,3.272
		s0.235,0.896,0.469,1.314h-1.938C856.328,414.808,856.204,414.358,856.149,413.842z M855.994,409.699
		c-0.673,0.275-1.684,0.509-3.03,0.701c-0.763,0.109-1.302,0.233-1.618,0.371s-0.561,0.338-0.731,0.603
		c-0.172,0.265-0.258,0.559-0.258,0.882c0,0.494,0.187,0.907,0.562,1.236c0.374,0.33,0.923,0.495,1.645,0.495
		c0.714,0,1.35-0.156,1.906-0.469s0.966-0.74,1.227-1.283c0.199-0.419,0.299-1.038,0.299-1.855V409.699z"/>
	<path d="M869.363,404.246v10.947h-1.845v-4.268h-1.072c-0.653,0-1.139,0.084-1.459,0.253c-0.319,0.168-0.785,0.709-1.396,1.623
		l-1.618,2.392h-2.299l2-2.948c0.611-0.9,1.22-1.408,1.824-1.525c-1.059-0.145-1.844-0.525-2.355-1.145
		c-0.512-0.618-0.768-1.329-0.768-2.134c0-0.948,0.335-1.718,1.005-2.309s1.641-0.887,2.912-0.887H869.363z M867.518,405.782h-2.639
		c-1.106,0-1.819,0.172-2.14,0.516c-0.319,0.344-0.479,0.745-0.479,1.206c0,0.652,0.235,1.132,0.706,1.438s1.304,0.459,2.499,0.459
		h2.052V405.782z"/>
	<path d="M771.747,429.579h1.855V439h4.227v-9.422h1.855V439h4.236v-9.422h1.845V439h1.228v4.628h-1.536v-3.103h-13.71V429.579z"/>
	<path d="M796.311,437l1.917,0.237c-0.303,1.12-0.862,1.989-1.681,2.607c-0.817,0.619-1.862,0.928-3.133,0.928
		c-1.602,0-2.871-0.493-3.81-1.479c-0.938-0.986-1.406-2.369-1.406-4.149c0-1.842,0.474-3.271,1.422-4.288
		c0.948-1.017,2.179-1.525,3.69-1.525c1.464,0,2.659,0.498,3.587,1.494c0.928,0.997,1.392,2.398,1.392,4.206
		c0,0.11-0.003,0.275-0.01,0.495h-8.164c0.068,1.202,0.409,2.123,1.021,2.763c0.611,0.639,1.374,0.958,2.288,0.958
		c0.681,0,1.261-0.179,1.742-0.536C795.647,438.354,796.029,437.784,796.311,437z M790.218,434.001h6.113
		c-0.083-0.921-0.316-1.612-0.701-2.072c-0.591-0.715-1.357-1.072-2.299-1.072c-0.852,0-1.568,0.285-2.149,0.855
		C790.602,432.283,790.281,433.046,790.218,434.001z"/>
	<path d="M800.764,429.579h8.617v10.947h-1.845v-9.411h-4.917v5.453c0,1.271-0.041,2.109-0.124,2.515
		c-0.082,0.406-0.31,0.76-0.681,1.062c-0.371,0.303-0.906,0.454-1.607,0.454c-0.433,0-0.932-0.027-1.495-0.083v-1.546h0.814
		c0.385,0,0.66-0.039,0.825-0.118c0.164-0.079,0.274-0.205,0.329-0.376c0.056-0.172,0.083-0.732,0.083-1.681V429.579z"/>
	<path d="M812.143,429.579h1.855v4.278h2.351c1.532,0,2.713,0.297,3.541,0.892c0.827,0.595,1.241,1.414,1.241,2.458
		c0,0.914-0.345,1.696-1.035,2.346c-0.691,0.649-1.796,0.974-3.314,0.974h-4.639V429.579z M813.999,439h1.948
		c1.175,0,2.014-0.145,2.516-0.434c0.501-0.288,0.752-0.738,0.752-1.35c0-0.475-0.186-0.897-0.557-1.269s-1.192-0.557-2.463-0.557
		h-2.196V439z"/>
</g>
<g>
	<path d="M752.005,194.482v-13.328h-4.979v-1.783h11.978v1.783h-4.999v13.328H752.005z"/>
	<path d="M767.127,190.957l1.917,0.237c-0.303,1.12-0.862,1.989-1.681,2.607c-0.817,0.619-1.862,0.928-3.133,0.928
		c-1.602,0-2.871-0.493-3.81-1.479c-0.938-0.986-1.406-2.369-1.406-4.149c0-1.842,0.474-3.271,1.422-4.288
		c0.948-1.017,2.179-1.525,3.69-1.525c1.464,0,2.659,0.498,3.587,1.494c0.928,0.997,1.392,2.398,1.392,4.206
		c0,0.11-0.003,0.275-0.01,0.495h-8.164c0.068,1.202,0.409,2.123,1.021,2.763c0.611,0.639,1.374,0.958,2.288,0.958
		c0.681,0,1.261-0.179,1.742-0.536C766.463,192.31,766.845,191.74,767.127,190.957z M761.035,187.958h6.113
		c-0.083-0.921-0.316-1.612-0.701-2.072c-0.591-0.715-1.357-1.072-2.299-1.072c-0.852,0-1.568,0.285-2.149,0.855
		C761.418,186.239,761.097,187.002,761.035,187.958z"/>
	<path d="M771.374,198.677v-15.143h1.69v1.423c0.398-0.557,0.849-0.975,1.351-1.253c0.501-0.278,1.109-0.417,1.824-0.417
		c0.935,0,1.759,0.24,2.474,0.722c0.715,0.48,1.254,1.159,1.618,2.036c0.364,0.876,0.547,1.836,0.547,2.881
		c0,1.12-0.201,2.128-0.604,3.025c-0.401,0.896-0.985,1.584-1.752,2.062s-1.572,0.716-2.417,0.716c-0.618,0-1.174-0.13-1.665-0.392
		c-0.491-0.261-0.896-0.591-1.211-0.989v5.329H771.374z M773.053,189.07c0,1.409,0.285,2.45,0.856,3.124
		c0.57,0.673,1.261,1.01,2.071,1.01c0.825,0,1.531-0.349,2.118-1.046c0.588-0.697,0.882-1.778,0.882-3.242
		c0-1.395-0.287-2.439-0.861-3.134c-0.573-0.693-1.259-1.041-2.056-1.041c-0.791,0-1.49,0.37-2.098,1.108
		C773.358,186.587,773.053,187.662,773.053,189.07z"/>
	<path d="M783.167,183.535h2.886l2.876,8.762l3.195-8.762h2.67v10.947h-1.855v-8.813l-3.236,8.813h-1.66l-3.062-9.236v9.236h-1.813
		V183.535z"/>
	<path d="M797.627,183.535h1.855v8.35l5.144-8.35h2v10.947h-1.855v-8.298l-5.144,8.298h-2V183.535z"/>
	<path d="M809.431,183.535h1.854v4.557h5.145v-4.557h1.854v10.947h-1.854v-4.855h-5.145v4.855h-1.854V183.535z"/>
	<path d="M828.222,193.131c-0.688,0.584-1.349,0.997-1.984,1.237s-1.318,0.36-2.046,0.36c-1.203,0-2.127-0.293-2.773-0.881
		c-0.646-0.588-0.969-1.339-0.969-2.252c0-0.536,0.122-1.026,0.366-1.47c0.243-0.442,0.563-0.799,0.958-1.066
		c0.396-0.269,0.841-0.471,1.335-0.608c0.364-0.096,0.914-0.188,1.649-0.278c1.498-0.179,2.602-0.392,3.309-0.639
		c0.007-0.255,0.011-0.416,0.011-0.484c0-0.756-0.175-1.289-0.525-1.598c-0.475-0.42-1.179-0.629-2.113-0.629
		c-0.873,0-1.518,0.152-1.933,0.458c-0.416,0.307-0.724,0.848-0.923,1.624l-1.814-0.247c0.165-0.777,0.437-1.404,0.814-1.882
		s0.925-0.845,1.639-1.103c0.715-0.258,1.543-0.387,2.484-0.387c0.935,0,1.694,0.11,2.278,0.33s1.014,0.496,1.288,0.829
		c0.275,0.334,0.468,0.755,0.577,1.263c0.063,0.316,0.093,0.887,0.093,1.712v2.474c0,1.725,0.04,2.815,0.119,3.272
		s0.235,0.896,0.469,1.314h-1.938C828.401,194.097,828.277,193.647,828.222,193.131z M828.067,188.988
		c-0.673,0.275-1.684,0.509-3.03,0.701c-0.763,0.109-1.302,0.233-1.618,0.371s-0.561,0.338-0.731,0.603
		c-0.172,0.265-0.258,0.559-0.258,0.882c0,0.494,0.187,0.907,0.562,1.236c0.374,0.33,0.923,0.495,1.645,0.495
		c0.714,0,1.35-0.156,1.906-0.469s0.966-0.74,1.227-1.283c0.199-0.419,0.299-1.038,0.299-1.855V188.988z"/>
	<path d="M833.726,183.535h8.617v10.947h-1.845v-9.411h-4.917v5.453c0,1.271-0.041,2.109-0.124,2.515
		c-0.082,0.406-0.31,0.76-0.681,1.062c-0.371,0.303-0.906,0.454-1.607,0.454c-0.433,0-0.932-0.027-1.495-0.083v-1.546h0.814
		c0.385,0,0.66-0.039,0.825-0.118c0.164-0.079,0.274-0.205,0.329-0.376c0.056-0.172,0.083-0.732,0.083-1.681V183.535z"/>
	<path d="M845.106,183.535h1.855v4.278h2.351c1.532,0,2.713,0.297,3.541,0.892c0.827,0.595,1.241,1.414,1.241,2.458
		c0,0.914-0.345,1.696-1.035,2.346c-0.691,0.649-1.796,0.974-3.314,0.974h-4.639V183.535z M846.961,192.957h1.948
		c1.175,0,2.014-0.145,2.516-0.434c0.501-0.288,0.752-0.738,0.752-1.35c0-0.475-0.186-0.897-0.557-1.269s-1.192-0.557-2.463-0.557
		h-2.196V192.957z"/>
</g>
<g>
	<path d="M24.569,167.656l2.333,0.589c-0.489,1.916-1.369,3.377-2.639,4.383c-1.271,1.006-2.824,1.509-4.66,1.509
		c-1.9,0-3.445-0.387-4.635-1.161c-1.19-0.773-2.097-1.894-2.718-3.361c-0.621-1.467-0.932-3.042-0.932-4.726
		c0-1.835,0.351-3.437,1.052-4.804c0.701-1.367,1.699-2.405,2.994-3.114c1.294-0.709,2.719-1.064,4.274-1.064
		c1.764,0,3.247,0.449,4.449,1.347c1.202,0.897,2.04,2.16,2.513,3.788l-2.297,0.541c-0.409-1.283-1.002-2.216-1.78-2.802
		c-0.777-0.585-1.755-0.878-2.934-0.878c-1.355,0-2.487,0.325-3.397,0.974c-0.91,0.649-1.549,1.521-1.918,2.615
		s-0.553,2.223-0.553,3.385c0,1.499,0.218,2.808,0.655,3.926s1.116,1.954,2.038,2.507c0.922,0.553,1.92,0.83,2.994,0.83
		c1.307,0,2.413-0.377,3.319-1.13S24.248,169.139,24.569,167.656z"/>
	<path d="M29.499,161.066h2.164v9.74l6-9.74h2.333v12.77h-2.165v-9.68l-6,9.68h-2.333V161.066z"/>
	<path d="M43.267,161.066h2.165v5.315h6v-5.315h2.165v12.77h-2.165v-5.664h-6v5.664h-2.165V161.066z"/>
	<path d="M65.187,172.261c-0.801,0.682-1.573,1.163-2.314,1.443c-0.742,0.281-1.537,0.421-2.387,0.421
		c-1.403,0-2.481-0.343-3.235-1.028c-0.753-0.685-1.13-1.561-1.13-2.627c0-0.625,0.143-1.197,0.427-1.714
		c0.284-0.517,0.657-0.932,1.118-1.244c0.461-0.313,0.98-0.549,1.557-0.709c0.425-0.112,1.066-0.221,1.924-0.325
		c1.748-0.208,3.034-0.457,3.86-0.746c0.008-0.296,0.012-0.485,0.012-0.565c0-0.882-0.205-1.503-0.613-1.864
		c-0.553-0.489-1.375-0.734-2.465-0.734c-1.018,0-1.77,0.179-2.254,0.535c-0.485,0.357-0.844,0.988-1.076,1.894l-2.116-0.289
		c0.192-0.906,0.509-1.637,0.95-2.194s1.078-0.986,1.912-1.287c0.833-0.301,1.799-0.451,2.898-0.451c1.09,0,1.976,0.128,2.657,0.385
		c0.681,0.257,1.182,0.579,1.503,0.968c0.321,0.389,0.545,0.88,0.673,1.473c0.072,0.369,0.108,1.034,0.108,1.996v2.886
		c0,2.012,0.046,3.285,0.138,3.818c0.092,0.533,0.274,1.044,0.547,1.533H65.62C65.396,173.388,65.251,172.862,65.187,172.261z
		 M65.007,167.427c-0.786,0.321-1.964,0.593-3.535,0.818c-0.89,0.128-1.519,0.272-1.888,0.433c-0.369,0.161-0.654,0.395-0.854,0.704
		s-0.3,0.651-0.3,1.028c0,0.577,0.218,1.058,0.655,1.443c0.437,0.385,1.076,0.577,1.918,0.577c0.833,0,1.575-0.182,2.224-0.547
		c0.649-0.365,1.126-0.864,1.431-1.497c0.232-0.489,0.349-1.21,0.349-2.164V167.427z"/>
	<path d="M70.562,161.066h10.077v12.77h-2.165v-10.979h-5.748v10.979h-2.165V161.066z"/>
	<path d="M82.719,161.066h10.377v1.792h-4.112v10.979h-2.152v-10.979h-4.112V161.066z"/>
	<path d="M95.165,161.066h2.164v9.74l6-9.74h2.333v12.77h-2.165v-9.68l-6,9.68h-2.333V161.066z"/>
	<path d="M108.126,161.066h2.165v2.417c0,1.042,0.062,1.798,0.187,2.267c0.124,0.469,0.422,0.878,0.896,1.227
		s1.066,0.523,1.78,0.523c0.817,0,1.876-0.216,3.174-0.649v-5.784h2.165v12.77h-2.165v-5.146c-1.331,0.417-2.573,0.625-3.728,0.625
		c-0.97,0-1.826-0.247-2.567-0.74c-0.741-0.493-1.244-1.096-1.509-1.81s-0.397-1.499-0.397-2.357V161.066z"/>
	<path d="M130.492,169.724l2.236,0.276c-0.353,1.307-1.006,2.321-1.96,3.042c-0.954,0.721-2.172,1.082-3.655,1.082
		c-1.868,0-3.349-0.575-4.443-1.726c-1.094-1.15-1.641-2.764-1.641-4.84c0-2.148,0.553-3.815,1.659-5.002
		c1.106-1.187,2.542-1.78,4.305-1.78c1.708,0,3.103,0.582,4.185,1.744c1.083,1.162,1.624,2.798,1.624,4.906
		c0,0.128-0.004,0.321-0.012,0.577h-9.523c0.08,1.403,0.477,2.477,1.19,3.223s1.604,1.118,2.669,1.118
		c0.794,0,1.471-0.208,2.032-0.625S130.163,170.638,130.492,169.724z M123.386,166.225h7.13c-0.096-1.074-0.369-1.88-0.818-2.417
		c-0.689-0.833-1.583-1.25-2.681-1.25c-0.994,0-1.83,0.333-2.507,0.998S123.458,165.111,123.386,166.225z"/>
	<path d="M143.779,169.159l2.128,0.277c-0.232,1.467-0.828,2.615-1.786,3.445s-2.134,1.245-3.529,1.245
		c-1.748,0-3.152-0.571-4.214-1.713c-1.063-1.143-1.593-2.78-1.593-4.912c0-1.378,0.229-2.585,0.686-3.619
		c0.457-1.034,1.152-1.81,2.086-2.327c0.934-0.517,1.95-0.775,3.048-0.775c1.387,0,2.521,0.351,3.403,1.052s1.447,1.697,1.696,2.988
		l-2.104,0.325c-0.201-0.857-0.555-1.503-1.064-1.936c-0.509-0.433-1.125-0.649-1.846-0.649c-1.09,0-1.976,0.391-2.657,1.172
		c-0.681,0.781-1.022,2.018-1.022,3.709c0,1.715,0.329,2.962,0.986,3.74c0.657,0.777,1.515,1.166,2.573,1.166
		c0.85,0,1.559-0.26,2.128-0.781S143.626,170.241,143.779,169.159z"/>
	<path d="M147.748,161.066h2.165v5.519c0.689,0,1.172-0.132,1.449-0.396s0.683-1.034,1.221-2.309c0.425-1.01,0.77-1.676,1.034-1.996
		c0.265-0.321,0.569-0.537,0.914-0.649s0.898-0.168,1.659-0.168h0.433v1.792l-0.601-0.012c-0.569,0-0.934,0.084-1.094,0.252
		c-0.168,0.176-0.425,0.702-0.77,1.575c-0.329,0.834-0.629,1.411-0.902,1.731c-0.273,0.321-0.694,0.613-1.263,0.878
		c0.93,0.249,1.844,1.114,2.742,2.597l2.369,3.956h-2.381l-2.309-3.956c-0.473-0.793-0.886-1.317-1.239-1.569
		c-0.353-0.252-0.773-0.378-1.262-0.378v5.904h-2.165V161.066z"/>
	<path d="M158.533,161.066h2.164v9.74l6-9.74h2.333v12.77h-2.165v-9.68l-6,9.68h-2.333V161.066z"/>
	<path d="M172.29,161.066h2.164v9.74l6-9.74h2.333v12.77h-2.165v-9.68l-6,9.68h-2.333V161.066z M179.805,156.232h1.479
		c-0.12,1.002-0.487,1.772-1.1,2.309c-0.613,0.537-1.429,0.806-2.447,0.806c-1.026,0-1.846-0.267-2.459-0.8s-0.98-1.305-1.1-2.315
		h1.479c0.112,0.545,0.334,0.952,0.667,1.221c0.333,0.269,0.779,0.403,1.34,0.403c0.649,0,1.141-0.13,1.473-0.391
		C179.47,157.205,179.692,156.794,179.805,156.232z"/>
	<path d="M52.489,190.618h10.077v12.77h-2.165v-10.979h-5.748v10.979h-2.165V190.618z"/>
	<path d="M65.716,208.306l-0.241-2.032c0.473,0.128,0.886,0.192,1.238,0.192c0.481,0,0.866-0.08,1.155-0.24
		c0.289-0.161,0.525-0.385,0.709-0.673c0.136-0.217,0.356-0.754,0.661-1.611c0.04-0.12,0.104-0.297,0.192-0.529l-4.846-12.794h2.333
		l2.657,7.395c0.345,0.938,0.653,1.924,0.926,2.958c0.248-0.994,0.545-1.964,0.89-2.91l2.729-7.443h2.165l-4.858,12.986
		c-0.521,1.403-0.926,2.369-1.214,2.898c-0.385,0.713-0.826,1.236-1.323,1.569c-0.497,0.333-1.09,0.499-1.78,0.499
		C66.694,208.57,66.229,208.482,65.716,208.306z"/>
	<path d="M80.951,197.616v-1.695c0.914-0.008,1.537-0.044,1.87-0.108c0.333-0.064,0.647-0.257,0.944-0.577
		c0.296-0.321,0.445-0.722,0.445-1.203c0-0.585-0.194-1.052-0.583-1.401c-0.389-0.349-0.892-0.523-1.509-0.523
		c-1.218,0-2.072,0.717-2.561,2.152l-2.056-0.337c0.641-2.396,2.188-3.595,4.642-3.595c1.362,0,2.431,0.373,3.204,1.118
		c0.774,0.746,1.161,1.635,1.161,2.669c0,1.042-0.505,1.872-1.515,2.489c0.641,0.345,1.122,0.784,1.443,1.316
		c0.321,0.533,0.481,1.165,0.481,1.894c0,1.146-0.417,2.076-1.25,2.79c-0.834,0.714-2,1.07-3.499,1.07
		c-2.91,0-4.598-1.294-5.063-3.884l2.032-0.433c0.185,0.818,0.559,1.451,1.125,1.9c0.565,0.449,1.212,0.673,1.942,0.673
		c0.729,0,1.336-0.206,1.822-0.619c0.485-0.413,0.727-0.94,0.727-1.581c0-0.497-0.152-0.93-0.457-1.299
		c-0.305-0.369-0.629-0.599-0.974-0.691c-0.345-0.092-0.97-0.138-1.876-0.138C81.372,197.604,81.208,197.608,80.951,197.616z"/>
	<path d="M89.464,190.618h2.165v4.99h2.741c1.788,0,3.165,0.347,4.131,1.04c0.966,0.693,1.449,1.649,1.449,2.868
		c0,1.066-0.403,1.978-1.208,2.736c-0.806,0.757-2.094,1.136-3.866,1.136h-5.411V190.618z M91.629,201.608h2.272
		c1.371,0,2.349-0.168,2.934-0.505c0.585-0.336,0.878-0.862,0.878-1.575c0-0.553-0.217-1.046-0.649-1.479
		c-0.433-0.433-1.391-0.649-2.874-0.649h-2.561V201.608z M101.573,190.618h2.164v12.77h-2.164V190.618z"/>
	<path d="M107.117,208.282v-17.664h1.972v1.659c0.465-0.649,0.99-1.136,1.575-1.461c0.585-0.324,1.294-0.487,2.128-0.487
		c1.09,0,2.052,0.281,2.886,0.842c0.834,0.561,1.463,1.353,1.888,2.375c0.425,1.022,0.637,2.142,0.637,3.361
		c0,1.307-0.234,2.483-0.704,3.529c-0.469,1.046-1.15,1.848-2.044,2.405c-0.894,0.557-1.834,0.835-2.82,0.835
		c-0.722,0-1.369-0.152-1.942-0.457c-0.573-0.304-1.044-0.689-1.413-1.154v6.217H107.117z M109.077,197.075
		c0,1.644,0.333,2.858,0.998,3.644c0.665,0.786,1.471,1.178,2.417,1.178c0.962,0,1.786-0.407,2.471-1.22s1.028-2.074,1.028-3.782
		c0-1.627-0.335-2.846-1.004-3.655s-1.469-1.215-2.399-1.215c-0.922,0-1.737,0.431-2.447,1.293S109.077,195.432,109.077,197.075z"/>
	<path d="M129.554,199.275l2.236,0.276c-0.353,1.307-1.006,2.321-1.96,3.042c-0.954,0.721-2.172,1.082-3.655,1.082
		c-1.868,0-3.349-0.575-4.443-1.726c-1.094-1.15-1.641-2.764-1.641-4.84c0-2.148,0.553-3.815,1.659-5.002
		c1.106-1.187,2.542-1.78,4.305-1.78c1.708,0,3.103,0.582,4.185,1.744c1.083,1.162,1.624,2.798,1.624,4.906
		c0,0.128-0.004,0.321-0.012,0.577h-9.523c0.08,1.403,0.477,2.477,1.19,3.223s1.604,1.118,2.669,1.118
		c0.794,0,1.471-0.208,2.032-0.625S129.225,200.189,129.554,199.275z M122.448,195.776h7.13c-0.096-1.074-0.369-1.88-0.818-2.417
		c-0.689-0.833-1.583-1.25-2.681-1.25c-0.994,0-1.83,0.333-2.507,0.998S122.52,194.662,122.448,195.776z M122.604,188.117v-2.465
		h2.261v2.465H122.604z M127.089,188.117v-2.465h2.261v2.465H127.089z"/>
	<path d="M134.496,190.618h2.165v5.519c0.689,0,1.172-0.132,1.449-0.396s0.683-1.034,1.221-2.309c0.425-1.01,0.77-1.676,1.034-1.996
		c0.265-0.321,0.569-0.537,0.914-0.649s0.898-0.168,1.659-0.168h0.433v1.792l-0.601-0.012c-0.569,0-0.934,0.084-1.094,0.252
		c-0.168,0.176-0.425,0.702-0.77,1.575c-0.329,0.834-0.629,1.411-0.902,1.731c-0.273,0.321-0.694,0.613-1.263,0.878
		c0.93,0.249,1.844,1.114,2.742,2.597l2.369,3.956h-2.381l-2.309-3.956c-0.473-0.793-0.886-1.317-1.239-1.569
		c-0.353-0.252-0.773-0.378-1.262-0.378v5.904h-2.165V190.618z"/>
</g>
<path fill="none" stroke="#F0BE39" stroke-width="6" stroke-linecap="round" d="M693.555,12.391c0,0,26.667,1.334,24,38.667
	s-4.089,89.292-3.334,104c1.334,26,18.667,32.667,18.667,32.667s-24.667,7.333-24,32.667s10.619,105.373,11.999,124
	c2.667,36-20.666,42.666-20.666,42.666"/>
<path fill="#B7E060" d="M690.84,461.403c-0.012-0.018-0.018-0.039-0.029-0.057c-0.007-0.01-0.016-0.019-0.022-0.029
	C690.808,461.346,690.82,461.374,690.84,461.403z M690.483,460.723c-0.001-0.001-0.001-0.003-0.002-0.005
	c-0.001-0.004-0.004-0.007-0.005-0.01C690.478,460.713,690.481,460.719,690.483,460.723z M731.658,500.579v-0.013
	c-0.001,0-0.101-0.005-0.267-0.014c-0.058-0.004-0.112-0.018-0.171-0.018c-0.017,0-0.032,0.005-0.049,0.005
	c-1.021-0.058-3.5-0.212-5.857-0.462c-0.552-0.008-2.189-0.744-3.913-2.083c-1.75-1.313-3.676-3.111-5.461-4.896
	c-0.151-0.112-0.494-0.75-0.488-2.145c-0.066-3.83,2.659-10.779,4.18-14.708c0.516-1.384,0.774-2.802,0.774-4.194
	c-0.039-5.712-4.091-10.297-9.383-12.619c-3.455-1.501-7.738-2.09-11.316-2.434c-3.193-0.292-5.764-0.32-6.31-0.323
	c-0.035-0.001-0.07-0.001-0.105,0c-0.789,0-1.563,0.317-2.121,0.876s-0.879,1.333-0.879,2.122c0,0.363,0.067,0.715,0.189,1.045
	c0.083,0.225,0.197,0.433,0.33,0.628c0.08,0.119,0.162,0.237,0.26,0.345c0.148,0.164,0.315,0.311,0.496,0.438
	c0.001,0,0.001,0.001,0.002,0.001c0.019,0.014,0.038,0.026,0.057,0.039c0.004,0.003,0.008,0.005,0.012,0.008
	c0.016,0.011,0.032,0.021,0.049,0.031c0.006,0.004,0.011,0.008,0.017,0.011c0.015,0.01,0.029,0.019,0.045,0.027
	c0.006,0.004,0.013,0.008,0.02,0.012c0.014,0.009,0.028,0.018,0.043,0.025c0.007,0.004,0.013,0.008,0.02,0.011
	c0.015,0.009,0.029,0.017,0.045,0.024c0.006,0.004,0.012,0.007,0.018,0.01c0.017,0.009,0.032,0.017,0.049,0.025l0.012,0.006
	c0.019,0.009,0.037,0.019,0.057,0.027c0,0,0.001,0.001,0.002,0.001c0.389,0.185,0.823,0.287,1.282,0.287
	c0.032,0,0.063-0.001,0.096-0.002c0.498,0.004,2.859,0.034,5.769,0.301c3.261,0.281,7.229,0.944,9.442,1.946
	c3.805,1.691,5.843,4.549,5.805,7.131c0,0.661-0.117,1.351-0.395,2.095c-1.414,3.894-4.493,10.868-4.56,16.808
	c0.007,2.162,0.432,4.533,2.246,6.387c1.873,1.87,3.936,3.815,6.049,5.412c-0.742,0.232-1.473,0.493-2.179,0.786
	c-2.173,0.942-4.295,2.117-5.583,4.489c-1.181,2.294-1.618,4.843-1.622,7.397c0.021,5.051,1.678,10.267,4.007,14.466
	c2.098,3.668,4.443,8.893,4.378,12.238c-0.023,1.599-0.382,2.544-1.176,3.333c-1.445,1.499-5.659,3.146-9.329,4.023
	c-1.842,0.467-3.567,0.802-4.819,1.02c-1.254,0.217-1.996,0.309-1.998,0.312c-1.644,0.208-2.809,1.708-2.6,3.354
	c0.193,1.516,1.484,2.623,2.976,2.623c0.125,0,0.252-0.008,0.379-0.023c0.073-0.013,3.461-0.439,7.532-1.467
	c4.09-1.083,8.803-2.522,12.028-5.525c2.214-2.122,3.03-5.007,3.007-7.648c-0.066-5.596-2.94-11.14-5.141-15.166
	c-1.886-3.34-3.263-7.866-3.242-11.538c-0.004-1.862,0.337-3.468,0.951-4.647c0.05-0.215,0.951-1.063,2.563-1.701
	c2.378-1.004,5.909-1.691,8.754-2.056c1.426-0.186,2.693-0.303,3.593-0.371c0.396-0.03,0.699-0.049,0.933-0.063
	c0.021,0,0.041,0.006,0.063,0.006c0.076,0,0.148-0.017,0.224-0.022c0.109-0.006,0.186-0.01,0.187-0.011v-0.008
	c1.478-0.202,2.619-1.456,2.619-2.988C734.25,502.041,733.122,500.792,731.658,500.579z"/>
<path d="M730.349,421.2v-0.04c-0.009,0-3.552-0.065-9.046-0.112c-1.643-0.007-3.115-0.474-3.958-1.079
	c-0.849-0.648-1.123-1.124-1.155-2.036c-0.002-0.526,0.146-1.275,0.644-2.277c1.295-2.631,2.162-5.019,2.184-7.498
	c0.027-1.879-0.652-3.9-2.074-5.322c-1.409-1.433-3.26-2.238-5.384-2.719c-5.076-1.117-12.656-1.188-16.082-1.202
	c-1.041,0.002-1.674,0.015-1.691,0.015c-1.658,0.034-2.974,1.405-2.938,3.063c0.034,1.656,1.405,2.972,3.062,2.938v-0.002
	c0.002,0,0.575-0.013,1.567-0.013c3.208-0.013,10.828,0.151,14.769,1.058c1.438,0.319,2.145,0.775,2.4,1.053
	c0.246,0.286,0.342,0.42,0.371,1.133c0.021,0.897-0.443,2.629-1.552,4.818c-0.827,1.652-1.275,3.323-1.275,4.957
	c-0.021,1.838,0.598,3.522,1.579,4.878c-1.165,0.362-2.312,0.829-3.389,1.553c-1.267,0.822-2.712,2.438-2.712,4.671
	c0.021,1.326,0.505,2.279,1,3.074c1.775,2.652,4.743,4.776,7.332,7.051c1.281,1.097,2.439,2.167,3.162,3.02
	c0.362,0.424,0.607,0.789,0.721,1.009c0.029,0.056,0.049,0.102,0.063,0.134c-0.015,0.132-0.063,0.278-0.376,0.631
	c-0.542,0.605-1.983,1.434-3.83,1.953c-1.837,0.54-4.046,0.84-6.085,0.838h-9.138c-1.659,0-3,1.342-3,3c0,1.657,1.341,3.002,3,3.002
	c0.009-0.002,2.944-0.002,9.138-0.002c3.474-0.011,7.096-0.62,10.162-1.936c1.53-0.668,2.944-1.512,4.104-2.726
	c1.153-1.189,2.044-2.912,2.031-4.835c-0.108-2.557-1.435-4.032-2.712-5.51c-2.004-2.159-4.64-4.188-6.714-6.004
	c-1.032-0.896-1.912-1.735-2.424-2.352c-0.055-0.064-0.105-0.127-0.15-0.186c0.649-0.352,1.978-0.859,3.344-1.101
	c1.84-0.384,3.804-0.543,4.623-0.566c2.194-0.07,8.823-0.312,10.21-0.361c0.039,0.002,0.076,0.012,0.115,0.012
	c1.654,0,2.995-1.341,2.995-2.995C733.24,422.566,731.955,421.256,730.349,421.2z"/>
</svg>
